<svg xmlns="http://www.w3.org/2000/svg" direction="ltr" width="1210" height="922" viewBox="70 -56 1210 922" stroke-linecap="round" stroke-linejoin="round" style="background-color: rgb(249, 250, 251);" encoding="UTF-8&quot;"><defs/><g transform="matrix(1, 0, 0, 1, 143.3047, 576.5)" opacity="1"><g><text font-size="24px" font-family="'tldraw_draw', sans-serif" font-style="normal" font-weight="normal" line-height="32.400000000000006px" dominant-baseline="mathematical" alignment-baseline="mathematical" stroke="rgb(249, 250, 251)" stroke-width="2px" fill="rgb(249, 250, 251)"><tspan alignment-baseline="mathematical" x="0px" y="12px">Writer</tspan><tspan alignment-baseline="mathematical" x="79px" y="12px"> </tspan><tspan alignment-baseline="mathematical" x="88px" y="12px">A</tspan></text><text font-size="24px" font-family="'tldraw_draw', sans-serif" font-style="normal" font-weight="normal" line-height="32.400000000000006px" dominant-baseline="mathematical" alignment-baseline="mathematical" stroke="none" stroke-width="2px" fill="#1d1d1d"><tspan alignment-baseline="mathematical" x="0px" y="12px">Writer</tspan><tspan alignment-baseline="mathematical" x="79px" y="12px"> </tspan><tspan alignment-baseline="mathematical" x="88px" y="12px">A</tspan></text></g></g><g transform="matrix(1, 0, 0, 1, 190, 157)" opacity="1"><path stroke-width="0" stroke="none" fill="#1d1d1d" d="M2.5515,66.7032 Q2.3814,68.2988 2.3079,69.9005 T2.1544,73.1034 1.99,76.3056 1.8172,79.5073 1.6665,81.3813 1.4575,81.8935 1.0959,82.3121 0.6196,82.5933 0.0784,82.7078 -0.471,82.6434 -0.9711,82.4069 -1.3695,82.0232 -1.6246,81.5323 -1.7095,80.9857 -1.6154,80.4406 -1.3523,79.9541 -0.9475,79.577 -0.4435,79.349 0.1069,79.2938 0.6461,79.4172 1.1177,79.7064 1.4722,80.131 1.6726,80.6466 1.6979,81.1992 1.5454,81.7309 1.2311,82.1861 0.7879,82.5172 0.2622,82.6893 -0.2909,82.6846 -0.8136,82.5035 -1.2511,82.165 -1.5576,81.7046 -1.7011,81.1703 -1.729,80.8917 -1.6172,79.2927 -1.39,76.0944 -1.1544,72.8966 -0.9079,69.6995 -0.7515,66.4968 -0.6355,64.5671 -0.3453,63.9741 0.1497,63.5374 0.7742,63.3233 1.433,63.3645 2.0259,63.6548 2.4626,64.1498 2.6767,64.7742 2.7216,65.1077 2.5515,66.7032 Z"/></g><g transform="matrix(1, 0, 0, 1, 188.9634, 288.8963)" opacity="1"><path stroke-width="0" stroke="none" fill="#1d1d1d" d="M0.7909,1.1455 Q0.7605,2.2909 0.7384,3.4364 T0.7004,5.7274 0.6728,8.0183 0.6527,10.3093 0.6382,12.6002 0.6277,14.8912 0.6201,17.1821 0.6146,19.4731 0.6106,21.764 0.5929,23.0067 0.5309,23.1909 0.4132,23.3457 0.2523,23.4548 0.0649,23.5068 -0.1292,23.4963 -0.3098,23.4243 -0.458,23.2984 -0.5582,23.1318 -0.6,22.942 -0.5789,22.7487 -0.4973,22.5722 -0.3636,22.4311 -0.1918,22.3401 0.0001,22.3086 0.1919,22.3401 0.3637,22.4312 0.4974,22.5724 0.579,22.7489 0.6,22.9421 0.5581,23.132 0.4579,23.2986 0.3097,23.4244 0.129,23.4963 -0.0651,23.5068 -0.2524,23.4547 -0.4133,23.3456 -0.5309,23.1908 -0.593,23.0065 -0.6089,22.9094 -0.6106,21.764 -0.6146,19.4731 -0.6201,17.1821 -0.6277,14.8912 -0.6382,12.6002 -0.6527,10.3093 -0.6728,8.0183 -0.7004,5.7274 -0.7384,3.4364 -0.7909,1.1455 -0.7901,-0.1572 -0.6698,-0.4476 -0.4475,-0.6698 -0.1571,-0.7901 0.1572,-0.7901 0.4476,-0.6698 0.6698,-0.4475 0.7901,-0.1571 0.8214,0 0.7909,1.1455 Z"/></g><g transform="matrix(1, 0, 0, 1, 190, 546.7043)" opacity="1"><path stroke-width="0" stroke="none" fill="#1d1d1d" d="M1.6555,2.0259 Q1.6747,4.1298 1.7356,5.1793 T1.8557,7.2783 1.9725,9.3775 2.0865,11.4768 2.1982,13.5763 2.3079,15.6758 2.4161,17.7754 2.5229,19.8751 2.5467,21.1785 2.4087,21.6631 2.1232,22.0782 1.7202,22.3804 1.2417,22.5381 0.7379,22.5347 0.2616,22.3707 -0.1375,22.0632 -0.4174,21.6443 -0.5489,21.158 -0.5183,20.6551 -0.3287,20.1884 0,19.8066 0.4334,19.5498 0.9262,19.4448 1.4266,19.5026 1.8824,19.7172 2.2458,20.0662 2.4788,20.5129 2.5569,21.0106 2.4721,21.5072 2.233,21.9506 1.8649,22.2946 1.4063,22.503 0.9051,22.5541 0.4138,22.4424 -0.0161,22.1797 -0.3396,21.7935 -0.5228,21.3242 -0.576,21.0748 -0.6229,20.0249 -0.7161,17.9246 -0.8079,15.8242 -0.8982,13.7237 -0.9865,11.6232 -1.0725,9.5225 -1.1557,7.4217 -1.2356,5.3207 -1.4555,2.1741 -1.5889,-0.2381 -1.3768,-0.8281 -0.9551,-1.2919 -0.388,-1.5591 0.2382,-1.5889 0.8281,-1.3767 1.292,-0.955 1.5591,-0.3879 1.6362,-0.0778 1.6555,2.0259 Z"/></g><g transform="matrix(1, 0, 0, 1, 191, 616.7043)" opacity="1"><path stroke-width="0" stroke="none" fill="#1d1d1d" d="M0.8445,1.8 Q0.8055,3.6 0.79,4.5 T0.7628,6.3 0.7423,8.1 0.7269,9.9 0.7153,11.7 0.7065,13.5 0.7,15.3 0.695,17.1 0.6748,18.1106 0.6041,18.3203 0.4702,18.4964 0.2871,18.6206 0.0739,18.6798 -0.147,18.6678 -0.3526,18.5859 -0.5212,18.4426 -0.6352,18.253 -0.6828,18.037 -0.6588,17.817 -0.5659,17.6162 -0.4137,17.4556 -0.2182,17.352 0.0001,17.3162 0.2184,17.3521 0.4139,17.4557 0.566,17.6164 0.6589,17.8172 0.6828,18.0372 0.6352,18.2532 0.521,18.4428 0.3524,18.586 0.1468,18.6678 -0.0741,18.6797 -0.2873,18.6205 -0.4704,18.4963 -0.6042,18.3201 -0.6748,18.1104 -0.6929,17.9999 -0.695,17.1 -0.7,15.3 -0.7065,13.5 -0.7153,11.7 -0.7269,9.9 -0.7423,8.1 -0.7628,6.3 -0.79,4.5 -0.8445,1.8 -0.8498,-0.169 -0.7205,-0.4814 -0.4814,-0.7205 -0.169,-0.8499 0.1691,-0.8498 0.4814,-0.7204 0.7205,-0.4813 0.8499,-0.169 0.8835,0 0.8445,1.8 Z"/></g><g transform="matrix(1, 0, 0, 1, 498, 42)" opacity="1"><path d="M7,-0.0147 L371.0556,-0.7808 Q378.0556,-0.7955 377.9715,6.204 L376.3497,141.1689 Q376.2656,148.1684 369.2657,148.1948 L7.7881,149.5581 Q0.7882,149.5845 0.7096,142.5849 L-0.8093,7.3088 Q-0.8879,0.3093 6.1121,0.3047 L369.3455,0.0706 Q376.3455,0.0661 376.3953,7.0659 L377.3619,142.9035 Q377.4117,149.9034 370.4118,149.8708 L7.8088,148.1851 Q0.8089,148.1526 0.7626,141.1527 L-0.1178,7.9952 Q-0.1641,0.9954 7,-0.0147 " fill="none" stroke="#1d1d1d" stroke-width="3.5"/></g><g transform="matrix(1, 0, 0, 1, 491.2101, 670.5572)" opacity="1"><path d="M7,0.0021 L368.8752,0.1128 Q375.8752,0.1149 375.9484,7.1146 L377.358,141.7774 Q377.4313,148.777 370.4313,148.7908 L6.6055,149.5073 Q-0.3944,149.521 -0.4195,142.5211 L-0.9035,7.5881 Q-0.9286,0.5882 6.0714,0.5859 L370.8656,0.4686 Q377.8656,0.4664 377.864,7.4664 L377.8334,142.8239 Q377.8318,149.8239 370.8319,149.8007 L6.3441,148.5902 Q-0.6559,148.567 -0.6714,141.567 L-0.9698,6.8373 Q-0.9853,-0.1627 7,0.0021 " fill="none" stroke="#1d1d1d" stroke-width="3.5"/></g><g transform="matrix(1, 0, 0, 1, 767.8138, 239.5081)" opacity="1"><g><defs><mask id="shape_DgnGaHJRvStbdeu1ZSDoU_clip"><rect x="-101" y="-147" width="201" height="247" fill="white"/><path d="M -5.526794919243111 -38.75936120442628 L -1 -47 L 3.873205080756886 -38.95936120442627" fill="none" stroke="none"/></mask></defs><g mask="url(#shape_DgnGaHJRvStbdeu1ZSDoU_clip)"><rect x="-100" y="-100" width="201" height="247" fill="transparent" stroke="none"/><path d="M0,0L-1,-47" fill="none" stroke="#1d1d1d" stroke-width="3.5" stroke-dasharray="none" stroke-dashoffset="none"/></g><path d="M -5.526794919243111 -38.75936120442628 L -1 -47 L 3.873205080756886 -38.95936120442627" fill="none" stroke="#1d1d1d" stroke-width="3.5"/></g></g><g transform="matrix(1, 0, 0, 1, 517.001, 53) scale(0.9375, 0.9375)" opacity="1"><g><text font-size="24px" font-family="'tldraw_draw', sans-serif" font-style="normal" font-weight="normal" line-height="32.400000000000006px" dominant-baseline="mathematical" alignment-baseline="mathematical" stroke="rgb(249, 250, 251)" stroke-width="2px" fill="rgb(249, 250, 251)"><tspan alignment-baseline="mathematical" x="0px" y="12px">Abstract</tspan><tspan alignment-baseline="mathematical" x="107px" y="12px"> </tspan><tspan alignment-baseline="mathematical" x="115px" y="12px">Class</tspan><tspan alignment-baseline="mathematical" x="178px" y="12px"> </tspan><tspan alignment-baseline="mathematical" x="186px" y="12px">ExchangeBase</tspan></text><text font-size="24px" font-family="'tldraw_draw', sans-serif" font-style="normal" font-weight="normal" line-height="32.400000000000006px" dominant-baseline="mathematical" alignment-baseline="mathematical" stroke="none" stroke-width="2px" fill="#1d1d1d"><tspan alignment-baseline="mathematical" x="0px" y="12px">Abstract</tspan><tspan alignment-baseline="mathematical" x="107px" y="12px"> </tspan><tspan alignment-baseline="mathematical" x="115px" y="12px">Class</tspan><tspan alignment-baseline="mathematical" x="178px" y="12px"> </tspan><tspan alignment-baseline="mathematical" x="186px" y="12px">ExchangeBase</tspan></text></g></g><g transform="matrix(1, 0, 0, 1, 528.0455, 681.5572) scale(0.9375, 0.9375)" opacity="1"><g><text font-size="24px" font-family="'tldraw_draw', sans-serif" font-style="normal" font-weight="normal" line-height="32.400000000000006px" dominant-baseline="mathematical" alignment-baseline="mathematical" stroke="rgb(249, 250, 251)" stroke-width="2px" fill="rgb(249, 250, 251)"><tspan alignment-baseline="mathematical" x="0px" y="12px">Abstract</tspan><tspan alignment-baseline="mathematical" x="107px" y="12px"> </tspan><tspan alignment-baseline="mathematical" x="115px" y="12px">Class</tspan><tspan alignment-baseline="mathematical" x="178px" y="12px"> </tspan><tspan alignment-baseline="mathematical" x="186px" y="12px">WriterBase</tspan></text><text font-size="24px" font-family="'tldraw_draw', sans-serif" font-style="normal" font-weight="normal" line-height="32.400000000000006px" dominant-baseline="mathematical" alignment-baseline="mathematical" stroke="none" stroke-width="2px" fill="#1d1d1d"><tspan alignment-baseline="mathematical" x="0px" y="12px">Abstract</tspan><tspan alignment-baseline="mathematical" x="107px" y="12px"> </tspan><tspan alignment-baseline="mathematical" x="115px" y="12px">Class</tspan><tspan alignment-baseline="mathematical" x="178px" y="12px"> </tspan><tspan alignment-baseline="mathematical" x="186px" y="12px">WriterBase</tspan></text></g></g><g transform="matrix(1, 0, 0, 1, 546.0703, 119)" opacity="1"><g><text font-size="18px" font-family="'tldraw_draw', sans-serif" font-style="normal" font-weight="normal" line-height="24.3px" dominant-baseline="mathematical" alignment-baseline="mathematical" stroke="rgb(249, 250, 251)" stroke-width="2px" fill="rgb(249, 250, 251)"><tspan alignment-baseline="mathematical" x="0px" y="9px">abstract</tspan><tspan alignment-baseline="mathematical" x="78px" y="9px"> </tspan><tspan alignment-baseline="mathematical" x="84px" y="9px">fetch_balance</tspan></text><text font-size="18px" font-family="'tldraw_draw', sans-serif" font-style="normal" font-weight="normal" line-height="24.3px" dominant-baseline="mathematical" alignment-baseline="mathematical" stroke="none" stroke-width="2px" fill="#1d1d1d"><tspan alignment-baseline="mathematical" x="0px" y="9px">abstract</tspan><tspan alignment-baseline="mathematical" x="78px" y="9px"> </tspan><tspan alignment-baseline="mathematical" x="84px" y="9px">fetch_balance</tspan></text></g></g><g transform="matrix(1, 0, 0, 1, 538.3195, 747.5572)" opacity="1"><g><text font-size="18px" font-family="'tldraw_draw', sans-serif" font-style="normal" font-weight="normal" line-height="24.3px" dominant-baseline="mathematical" alignment-baseline="mathematical" stroke="rgb(249, 250, 251)" stroke-width="2px" fill="rgb(249, 250, 251)"><tspan alignment-baseline="mathematical" x="0px" y="9px">abstract</tspan><tspan alignment-baseline="mathematical" x="78px" y="9px"> </tspan><tspan alignment-baseline="mathematical" x="84px" y="9px">update_balances</tspan></text><text font-size="18px" font-family="'tldraw_draw', sans-serif" font-style="normal" font-weight="normal" line-height="24.3px" dominant-baseline="mathematical" alignment-baseline="mathematical" stroke="none" stroke-width="2px" fill="#1d1d1d"><tspan alignment-baseline="mathematical" x="0px" y="9px">abstract</tspan><tspan alignment-baseline="mathematical" x="78px" y="9px"> </tspan><tspan alignment-baseline="mathematical" x="84px" y="9px">update_balances</tspan></text></g></g><g transform="matrix(1, 0, 0, 1, 545.6719, 141.5)" opacity="1"><g><text font-size="18px" font-family="'tldraw_draw', sans-serif" font-style="normal" font-weight="normal" line-height="24.3px" dominant-baseline="mathematical" alignment-baseline="mathematical" stroke="rgb(249, 250, 251)" stroke-width="2px" fill="rgb(249, 250, 251)"><tspan alignment-baseline="mathematical" x="0px" y="9px">abstract</tspan><tspan alignment-baseline="mathematical" x="79px" y="9px"> </tspan><tspan alignment-baseline="mathematical" x="85px" y="9px">fetch_positions</tspan></text><text font-size="18px" font-family="'tldraw_draw', sans-serif" font-style="normal" font-weight="normal" line-height="24.3px" dominant-baseline="mathematical" alignment-baseline="mathematical" stroke="none" stroke-width="2px" fill="#1d1d1d"><tspan alignment-baseline="mathematical" x="0px" y="9px">abstract</tspan><tspan alignment-baseline="mathematical" x="79px" y="9px"> </tspan><tspan alignment-baseline="mathematical" x="85px" y="9px">fetch_positions</tspan></text></g></g><g transform="matrix(1, 0, 0, 1, 538.5382, 770.0572)" opacity="1"><g><text font-size="18px" font-family="'tldraw_draw', sans-serif" font-style="normal" font-weight="normal" line-height="24.3px" dominant-baseline="mathematical" alignment-baseline="mathematical" stroke="rgb(249, 250, 251)" stroke-width="2px" fill="rgb(249, 250, 251)"><tspan alignment-baseline="mathematical" x="0px" y="9px">abstract</tspan><tspan alignment-baseline="mathematical" x="78px" y="9px"> </tspan><tspan alignment-baseline="mathematical" x="84px" y="9px">update_positions</tspan></text><text font-size="18px" font-family="'tldraw_draw', sans-serif" font-style="normal" font-weight="normal" line-height="24.3px" dominant-baseline="mathematical" alignment-baseline="mathematical" stroke="none" stroke-width="2px" fill="#1d1d1d"><tspan alignment-baseline="mathematical" x="0px" y="9px">abstract</tspan><tspan alignment-baseline="mathematical" x="78px" y="9px"> </tspan><tspan alignment-baseline="mathematical" x="84px" y="9px">update_positions</tspan></text></g></g><g transform="matrix(1, 0, 0, 1, 515, 80)" opacity="1"><g><text font-size="18px" font-family="'tldraw_draw', sans-serif" font-style="normal" font-weight="normal" line-height="24.3px" dominant-baseline="mathematical" alignment-baseline="mathematical" stroke="rgb(249, 250, 251)" stroke-width="2px" fill="rgb(249, 250, 251)"><tspan alignment-baseline="mathematical" x="3.1669921875px" y="9px">{</tspan></text><text font-size="18px" font-family="'tldraw_draw', sans-serif" font-style="normal" font-weight="normal" line-height="24.3px" dominant-baseline="mathematical" alignment-baseline="mathematical" stroke="none" stroke-width="2px" fill="#1d1d1d"><tspan alignment-baseline="mathematical" x="3.1669921875px" y="9px">{</tspan></text></g></g><g transform="matrix(1, 0, 0, 1, 507.2101, 707.5572)" opacity="1"><g><text font-size="18px" font-family="'tldraw_draw', sans-serif" font-style="normal" font-weight="normal" line-height="24.3px" dominant-baseline="mathematical" alignment-baseline="mathematical" stroke="rgb(249, 250, 251)" stroke-width="2px" fill="rgb(249, 250, 251)"><tspan alignment-baseline="mathematical" x="3.1669921875px" y="9px">{</tspan></text><text font-size="18px" font-family="'tldraw_draw', sans-serif" font-style="normal" font-weight="normal" line-height="24.3px" dominant-baseline="mathematical" alignment-baseline="mathematical" stroke="none" stroke-width="2px" fill="#1d1d1d"><tspan alignment-baseline="mathematical" x="3.1669921875px" y="9px">{</tspan></text></g></g><g transform="matrix(1, 0, 0, 1, 546.0703, 119)" opacity="1"><g><text font-size="18px" font-family="'tldraw_draw', sans-serif" font-style="normal" font-weight="normal" line-height="24.3px" dominant-baseline="mathematical" alignment-baseline="mathematical" stroke="rgb(249, 250, 251)" stroke-width="2px" fill="rgb(249, 250, 251)"><tspan alignment-baseline="mathematical" x="0px" y="9px">abstract</tspan><tspan alignment-baseline="mathematical" x="78px" y="9px"> </tspan><tspan alignment-baseline="mathematical" x="84px" y="9px">fetch_balance</tspan></text><text font-size="18px" font-family="'tldraw_draw', sans-serif" font-style="normal" font-weight="normal" line-height="24.3px" dominant-baseline="mathematical" alignment-baseline="mathematical" stroke="none" stroke-width="2px" fill="#1d1d1d"><tspan alignment-baseline="mathematical" x="0px" y="9px">abstract</tspan><tspan alignment-baseline="mathematical" x="78px" y="9px"> </tspan><tspan alignment-baseline="mathematical" x="84px" y="9px">fetch_balance</tspan></text></g></g><g transform="matrix(1, 0, 0, 1, 547.2813, 97)" opacity="1"><g><text font-size="18px" font-family="'tldraw_draw', sans-serif" font-style="normal" font-weight="normal" line-height="24.3px" dominant-baseline="mathematical" alignment-baseline="mathematical" stroke="rgb(249, 250, 251)" stroke-width="2px" fill="rgb(249, 250, 251)"><tspan alignment-baseline="mathematical" x="0px" y="9px">//</tspan><tspan alignment-baseline="mathematical" x="14px" y="9px"> </tspan><tspan alignment-baseline="mathematical" x="20px" y="9px">...</tspan></text><text font-size="18px" font-family="'tldraw_draw', sans-serif" font-style="normal" font-weight="normal" line-height="24.3px" dominant-baseline="mathematical" alignment-baseline="mathematical" stroke="none" stroke-width="2px" fill="#099268"><tspan alignment-baseline="mathematical" x="0px" y="9px">//</tspan><tspan alignment-baseline="mathematical" x="14px" y="9px"> </tspan><tspan alignment-baseline="mathematical" x="20px" y="9px">...</tspan></text></g></g><g transform="matrix(1, 0, 0, 1, 540.4913, 725.5572)" opacity="1"><g><text font-size="18px" font-family="'tldraw_draw', sans-serif" font-style="normal" font-weight="normal" line-height="24.3px" dominant-baseline="mathematical" alignment-baseline="mathematical" stroke="rgb(249, 250, 251)" stroke-width="2px" fill="rgb(249, 250, 251)"><tspan alignment-baseline="mathematical" x="0px" y="9px">//</tspan><tspan alignment-baseline="mathematical" x="14px" y="9px"> </tspan><tspan alignment-baseline="mathematical" x="20px" y="9px">...</tspan></text><text font-size="18px" font-family="'tldraw_draw', sans-serif" font-style="normal" font-weight="normal" line-height="24.3px" dominant-baseline="mathematical" alignment-baseline="mathematical" stroke="none" stroke-width="2px" fill="#099268"><tspan alignment-baseline="mathematical" x="0px" y="9px">//</tspan><tspan alignment-baseline="mathematical" x="14px" y="9px"> </tspan><tspan alignment-baseline="mathematical" x="20px" y="9px">...</tspan></text></g></g><g transform="matrix(1, 0, 0, 1, 517, 161)" opacity="1"><g><text font-size="18px" font-family="'tldraw_draw', sans-serif" font-style="normal" font-weight="normal" line-height="24.3px" dominant-baseline="mathematical" alignment-baseline="mathematical" stroke="rgb(249, 250, 251)" stroke-width="2px" fill="rgb(249, 250, 251)"><tspan alignment-baseline="mathematical" x="3.1669921875px" y="9px">}</tspan></text><text font-size="18px" font-family="'tldraw_draw', sans-serif" font-style="normal" font-weight="normal" line-height="24.3px" dominant-baseline="mathematical" alignment-baseline="mathematical" stroke="none" stroke-width="2px" fill="#1d1d1d"><tspan alignment-baseline="mathematical" x="3.1669921875px" y="9px">}</tspan></text></g></g><g transform="matrix(1, 0, 0, 1, 509.2101, 788.5572)" opacity="1"><g><text font-size="18px" font-family="'tldraw_draw', sans-serif" font-style="normal" font-weight="normal" line-height="24.3px" dominant-baseline="mathematical" alignment-baseline="mathematical" stroke="rgb(249, 250, 251)" stroke-width="2px" fill="rgb(249, 250, 251)"><tspan alignment-baseline="mathematical" x="3.1669921875px" y="9px">}</tspan></text><text font-size="18px" font-family="'tldraw_draw', sans-serif" font-style="normal" font-weight="normal" line-height="24.3px" dominant-baseline="mathematical" alignment-baseline="mathematical" stroke="none" stroke-width="2px" fill="#1d1d1d"><tspan alignment-baseline="mathematical" x="3.1669921875px" y="9px">}</tspan></text></g></g><g transform="matrix(1, 0, 0, 1, 102, 240)" opacity="1"><path d="M7,0.0074 L174.6256,0.1834 Q181.6256,0.1907 181.6182,7.1907 L181.5789,44.1379 Q181.5715,51.1379 174.5718,51.0671 L6.4218,49.3664 Q-0.5778,49.2956 -0.5793,42.2956 L-0.5863,8.1203 Q-0.5877,1.1203 6.4123,1.1124 L176.0113,0.9224 Q183.0113,0.9146 182.8471,7.9126 L182.035,42.5287 Q181.8708,49.5267 174.8708,49.5385 L7.5726,49.8207 Q0.5726,49.8325 0.333,42.8366 L-0.9079,6.6055 Q-1.1475,-0.3904 7,0.0074 " fill="none" stroke="#1d1d1d" stroke-width="3.5"/></g><g transform="matrix(1, 0, 0, 1, 106, 567)" opacity="1"><path d="M6.9999,0.0352 L176.0749,0.8843 Q183.0748,0.9194 182.776,7.913 L181.2927,42.6272 Q180.9939,49.6208 173.994,49.6703 L6.9352,50.8509 Q-0.0646,50.9003 -0.0216,43.9005 L0.2056,6.9413 Q0.2486,-0.0586 7.2486,-0.0478 L175.6203,0.2114 Q182.6203,0.2222 182.6048,7.2222 L182.5236,43.8345 Q182.5081,50.8344 175.5081,50.8438 L7.9891,51.0678 Q0.9891,51.0772 0.762,44.0809 L-0.4755,5.9724 Q-0.7027,-1.0239 6.9999,0.0352 " fill="none" stroke="#1d1d1d" stroke-width="3.5"/></g><g transform="matrix(1, 0, 0, 1, 294, 240)" opacity="1"><path d="M7,-0.0095 L174.4104,-0.2366 Q181.4104,-0.2461 181.5255,6.7529 L182.1284,43.4021 Q182.2436,50.4012 175.2436,50.3857 L6.8196,50.0136 Q-0.1804,49.9981 -0.0954,42.9986 L0.3375,7.3216 Q0.4224,0.3222 7.4223,0.2922 L175.8814,-0.4273 Q182.8814,-0.4572 182.8798,6.5428 L182.872,42.3924 Q182.8704,49.3924 175.8705,49.428 L7.6375,50.2841 Q0.6376,50.3197 0.3968,43.3238 L-0.8917,5.8931 Q-1.1325,-1.1028 7,-0.0095 " fill="none" stroke="#1d1d1d" stroke-width="3.5"/></g><g transform="matrix(1, 0, 0, 1, 298, 567)" opacity="1"><path d="M7,-0.0098 L174.7714,-0.2436 Q181.7713,-0.2534 181.9018,6.7454 L182.5912,43.7379 Q182.7216,50.7367 175.722,50.665 L6.9281,48.9354 Q-0.0715,48.8637 -0.1699,41.8644 L-0.6478,7.8462 Q-0.7461,0.8469 6.2536,0.7875 L174.0897,-0.6358 Q181.0894,-0.6952 181.2201,6.3036 L181.9091,43.191 Q182.0398,50.1897 175.0398,50.1992 L7.6599,50.4248 Q0.6599,50.4342 0.4845,43.4364 L-0.4074,7.8664 Q-0.5828,0.8686 7,-0.0098 " fill="none" stroke="#1d1d1d" stroke-width="3.5"/></g><g transform="matrix(1, 0, 0, 1, 486, 240)" opacity="1"><path d="M6.9999,-0.0278 L174.7489,-0.6928 Q181.7488,-0.7206 181.7684,6.2794 L181.8704,42.7701 Q181.8899,49.7701 174.8899,49.7551 L5.9726,49.3936 Q-1.0274,49.3786 -0.828,42.3814 L0.1819,6.9524 Q0.3814,-0.0447 7.3812,-0.0015 L175.6068,1.0373 Q182.6067,1.0806 182.4796,8.0794 L181.8609,42.169 Q181.7338,49.1678 174.7339,49.1572 L6.1133,48.9009 Q-0.8866,48.8903 -0.7483,41.8917 L-0.0678,7.4796 Q0.0706,0.4809 6.9999,-0.0278 " fill="none" stroke="#1d1d1d" stroke-width="3.5"/></g><g transform="matrix(1, 0, 0, 1, 574, 217)" opacity="1"><g><defs><mask id="shape_PxFA3ZCGBBebnf8HXxeKP_clip"><rect x="-98" y="-128" width="201" height="251" fill="white"/><path d="M -3.0999999999999988 -19.166540881398724 L 2 -28 L 7.099999999999999 -19.166540881398724" fill="none" stroke="none"/></mask></defs><g mask="url(#shape_PxFA3ZCGBBebnf8HXxeKP_clip)"><rect x="-100" y="-100" width="201" height="251" fill="transparent" stroke="none"/><path d="M2,23L2,-28" fill="none" stroke="#1d1d1d" stroke-width="3.5" stroke-dasharray="none" stroke-dashoffset="none"/></g><path d="M -3.0999999999999988 -19.166540881398724 L 2 -28 L 7.099999999999999 -19.166540881398724" fill="none" stroke="#1d1d1d" stroke-width="3.5"/></g></g><g transform="matrix(1, 0, 0, 1, 490, 567)" opacity="1"><path d="M6.9999,0.0342 L174.6008,0.8519 Q181.6007,0.886 181.632,7.886 L181.785,42.1894 Q181.8163,49.1893 174.8164,49.2364 L6.9678,50.3642 Q-0.032,50.4112 -0.0189,43.4112 L0.0496,6.6674 Q0.0627,-0.3326 7.0627,-0.3159 L174.546,0.0837 Q181.546,0.1004 181.6251,7.1 L182.0258,42.5322 Q182.105,49.5318 175.1051,49.5806 L8.1557,50.7452 Q1.1558,50.794 1.1547,43.794 L1.1485,6.3407 Q1.1473,-0.6593 6.9999,0.0342 " fill="none" stroke="#1d1d1d" stroke-width="3.5"/></g><g transform="matrix(1, 0, 0, 1, 580.2216, 615.228)" opacity="1"><g><defs><mask id="shape_iVr72TuCWTTF9KGybO66A_clip"><rect x="-99.21327317437226" y="-98.22797569685747" width="200.01711071559657" height="251.2812534176678" fill="white"/><path d="M 5.92899922011438 44.169393009729106 L 0.8038375412243113 53.05327772081034 L -4.327251463419183 44.172815152848415" fill="none" stroke="none"/></mask></defs><g mask="url(#shape_iVr72TuCWTTF9KGybO66A_clip)"><rect x="-100" y="-100" width="200.01711071559657" height="251.2812534176678" fill="transparent" stroke="none"/><path d="M0.7867268256277384,1.7720243031425298L0.8038375412243113,53.05327772081034" fill="none" stroke="#1d1d1d" stroke-width="3.5" stroke-dasharray="none" stroke-dashoffset="none"/></g><path d="M 5.92899922011438 44.169393009729106 L 0.8038375412243113 53.05327772081034 L -4.327251463419183 44.172815152848415" fill="none" stroke="#1d1d1d" stroke-width="3.5"/></g></g><g transform="matrix(1, 0, 0, 1, 579.4745, 474.5081)" opacity="1"><g><defs><mask id="shape_omQZGtuzrwysCx70DfyVI_clip"><rect x="-97.47447718604951" y="-100.52170224442335" width="200.4744771860495" height="290.52170224442335" fill="white"/><path d="M 8.202265406941045 80.87934023023857 L 3 90 L -2.297590356417606 80.93437611547935" fill="none" stroke="none"/></mask></defs><g mask="url(#shape_omQZGtuzrwysCx70DfyVI_clip)"><rect x="-100" y="-100" width="200.4744771860495" height="290.52170224442335" fill="transparent" stroke="none"/><path d="M2.525522813950488,-0.5217022444233521L3,90" fill="none" stroke="#1d1d1d" stroke-width="3.5" stroke-dasharray="none" stroke-dashoffset="none"/></g><path d="M 8.202265406941045 80.87934023023857 L 3 90 L -2.297590356417606 80.93437611547935" fill="none" stroke="#1d1d1d" stroke-width="3.5"/></g></g><g transform="matrix(1, 0, 0, 1, 678, 240)" opacity="1"><path d="M7,0.009 L175.1756,0.2258 Q182.1756,0.2348 182.0615,7.2339 L181.4965,41.9176 Q181.3825,48.9167 174.3825,48.9177 L5.9581,48.9434 Q-1.0419,48.9444 -0.83,41.9476 L0.2557,6.1002 Q0.4676,-0.8966 7.4672,-0.8277 L176.0042,0.8302 Q183.0039,0.8991 182.9222,7.8986 L182.5221,42.1918 Q182.4404,49.1913 175.4404,49.1944 L6.5782,49.2677 Q-0.4218,49.2707 -0.3375,42.2712 L0.1004,5.8904 Q0.1847,-1.1091 7,0.009 " fill="none" stroke="#1d1d1d" stroke-width="3.5"/></g><g transform="matrix(1, 0, 0, 1, 768.865, 285.4231)" opacity="1"><g><defs><mask id="shape_hwAbkM0fdv2XSp1CDADk9_clip"><rect x="-99.69061458867122" y="-95.42312443180367" width="200.60829835932748" height="287.191501497434" fill="white"/><path d="M 6.104117663744942 82.63870546843576 L 0.9176837706562537 91.76837706563032 L -4.395626814179138 82.7119577605696" fill="none" stroke="none"/></mask></defs><g mask="url(#shape_hwAbkM0fdv2XSp1CDADk9_clip)"><rect x="-100" y="-100" width="200.60829835932748" height="287.191501497434" fill="transparent" stroke="none"/><path d="M0.30938541132877617,4.5768755681963285L0.9176837706562537,91.76837706563032" fill="none" stroke="#1d1d1d" stroke-width="3.5" stroke-dasharray="none" stroke-dashoffset="none"/></g><path d="M 6.104117663744942 82.63870546843576 L 0.9176837706562537 91.76837706563032 L -4.395626814179138 82.7119577605696" fill="none" stroke="#1d1d1d" stroke-width="3.5"/></g></g><g transform="matrix(1, 0, 0, 1, 682, 567)" opacity="1"><path d="M6.9999,0.0358 L174.1613,0.8902 Q181.1613,0.926 181.4202,7.9212 L182.6896,42.2103 Q182.9486,49.2055 175.9487,49.2361 L6.6493,49.9762 Q-0.3506,50.0068 -0.3215,43.0069 L-0.1712,6.9309 Q-0.142,-0.069 6.8579,-0.1003 L175.8768,-0.8558 Q182.8767,-0.8871 182.8225,6.1127 L182.5431,42.1711 Q182.4888,49.1709 175.4888,49.1785 L7.6501,49.3603 Q0.6501,49.3679 0.4264,42.3714 L-0.6674,8.163 Q-0.8911,1.1666 6.9999,0.0358 " fill="none" stroke="#1d1d1d" stroke-width="3.5"/></g><g transform="matrix(1, 0, 0, 1, 773.1426, 616.0318)" opacity="1"><g><defs><mask id="shape_QRHKxta7cZggGiwSBiu0p_clip"><rect x="-100.09684644811216" y="-99.03181323808178" width="200.09684644811216" height="252.88892850011644" fill="white"/><path d="M 5.233340282248017 44.75425035640191 L 0 53.857115262034654 L -5.2666421143717805 44.773477178143075" fill="none" stroke="none"/></mask></defs><g mask="url(#shape_QRHKxta7cZggGiwSBiu0p_clip)"><rect x="-100" y="-100" width="200.09684644811216" height="252.88892850011644" fill="transparent" stroke="none"/><path d="M-0.09684644811216003,0.9681867619182185L0,53.857115262034654" fill="none" stroke="#1d1d1d" stroke-width="3.5" stroke-dasharray="none" stroke-dashoffset="none"/></g><path d="M 5.233340282248017 44.75425035640191 L 0 53.857115262034654 L -5.2666421143717805 44.773477178143075" fill="none" stroke="#1d1d1d" stroke-width="3.5"/></g></g><g transform="matrix(1, 0, 0, 1, 771, 471.7043)" opacity="1"><g><defs><mask id="shape_E7op4rSRcCvGxs3aCcLqQ_clip"><rect x="-100" y="-100" width="201" height="294" fill="white"/><path d="M 6.1529715384324115 84.85139987079414 L 1 94 L -4.346434351741661 84.96309567813643" fill="none" stroke="none"/></mask></defs><g mask="url(#shape_E7op4rSRcCvGxs3aCcLqQ_clip)"><rect x="-100" y="-100" width="201" height="294" fill="transparent" stroke="none"/><path d="M0,0L1,94" fill="none" stroke="#1d1d1d" stroke-width="3.5" stroke-dasharray="none" stroke-dashoffset="none"/></g><path d="M 6.1529715384324115 84.85139987079414 L 1 94 L -4.346434351741661 84.96309567813643" fill="none" stroke="#1d1d1d" stroke-width="3.5"/></g></g><g transform="matrix(1, 0, 0, 1, 870, 240)" opacity="1"><path d="M6.9999,-0.0368 L175.8488,-0.925 Q182.8487,-0.9619 182.6561,6.0355 L181.6587,42.2729 Q181.4661,49.2703 174.4663,49.3228 L7.1515,50.5782 Q0.1517,50.6308 0.1058,43.6309 L-0.1376,6.4847 Q-0.1835,-0.5152 6.8164,-0.4874 L174.8572,0.1795 Q181.8571,0.2073 181.8925,7.2072 L182.0743,43.1734 Q182.1097,50.1733 175.1098,50.1265 L8.0738,49.0097 Q1.0739,48.9629 0.8406,41.9668 L-0.3427,6.4809 Q-0.576,-0.5152 6.9999,-0.0368 " fill="none" stroke="#1d1d1d" stroke-width="3.5"/></g><g transform="matrix(1, 0, 0, 1, 874, 567)" opacity="1"><path d="M7,-0.0005 L174.9676,-0.0128 Q181.9676,-0.0133 181.909,6.9865 L181.601,43.7365 Q181.5424,50.7363 174.5427,50.6679 L7.3232,49.0333 Q0.3235,48.9649 0.3125,41.9649 L0.2576,7.0896 Q0.2466,0.0896 7.2466,0.0983 L174.5756,0.3042 Q181.5756,0.3128 181.72,7.3113 L182.4513,42.7561 Q182.5957,49.7546 175.5957,49.7728 L6.3249,50.2116 Q-0.6751,50.2297 -0.7233,43.2299 L-0.9762,6.5307 Q-1.0245,-0.4691 7,-0.0005 " fill="none" stroke="#1d1d1d" stroke-width="3.5"/></g><g transform="matrix(1, 0, 0, 1, 1062, 240)" opacity="1"><path d="M7,0.024 L175.0921,0.6003 Q182.092,0.6243 182.1503,7.624 L182.436,41.9192 Q182.4943,48.919 175.4944,48.9577 L7.5858,49.887 Q0.586,49.9258 0.55,42.9259 L0.3595,5.8458 Q0.3235,-1.1541 7.3235,-1.1385 L173.9439,-0.7684 Q180.9439,-0.7529 181.2445,6.2407 L182.8185,42.8625 Q183.1191,49.8561 176.1191,49.8512 L8.1226,49.7329 Q1.1226,49.728 0.9256,42.7308 L-0.1128,5.8408 Q-0.3098,-1.1564 7,0.024 " fill="none" stroke="#1d1d1d" stroke-width="3.5"/></g><g transform="matrix(1, 0, 0, 1, 1066, 567)" opacity="1"><path d="M7,-0.0241 L176.0289,-0.6058 Q183.0288,-0.6298 182.8412,6.3676 L181.8283,44.1501 Q181.6407,51.1476 174.6411,51.0679 L7.1116,49.1605 Q0.1121,49.0808 0.0597,42.081 L-0.2056,6.6479 Q-0.258,-0.3519 6.742,-0.3327 L174.2834,0.1285 Q181.2834,0.1478 181.5142,7.1439 L182.6685,42.1326 Q182.8993,49.1287 175.8993,49.1303 L7.2552,49.1684 Q0.2552,49.17 0.0611,42.1727 L-0.8902,7.8735 Q-1.0842,0.8762 7,-0.0241 " fill="none" stroke="#1d1d1d" stroke-width="3.5"/></g><g transform="matrix(1, 0, 0, 1, 120.2813, 249.5)" opacity="1"><g><text font-size="24px" font-family="'tldraw_draw', sans-serif" font-style="normal" font-weight="normal" line-height="32.400000000000006px" dominant-baseline="mathematical" alignment-baseline="mathematical" stroke="rgb(249, 250, 251)" stroke-width="2px" fill="rgb(249, 250, 251)"><tspan alignment-baseline="mathematical" x="0px" y="12px">Exchange</tspan><tspan alignment-baseline="mathematical" x="117px" y="12px"> </tspan><tspan alignment-baseline="mathematical" x="126px" y="12px">A</tspan></text><text font-size="24px" font-family="'tldraw_draw', sans-serif" font-style="normal" font-weight="normal" line-height="32.400000000000006px" dominant-baseline="mathematical" alignment-baseline="mathematical" stroke="none" stroke-width="2px" fill="#1d1d1d"><tspan alignment-baseline="mathematical" x="0px" y="12px">Exchange</tspan><tspan alignment-baseline="mathematical" x="117px" y="12px"> </tspan><tspan alignment-baseline="mathematical" x="126px" y="12px">A</tspan></text></g></g><g transform="matrix(1, 0, 0, 1, 313.9844, 249.5)" opacity="1"><g><text font-size="24px" font-family="'tldraw_draw', sans-serif" font-style="normal" font-weight="normal" line-height="32.400000000000006px" dominant-baseline="mathematical" alignment-baseline="mathematical" stroke="rgb(249, 250, 251)" stroke-width="2px" fill="rgb(249, 250, 251)"><tspan alignment-baseline="mathematical" x="0px" y="12px">Exchange</tspan><tspan alignment-baseline="mathematical" x="118px" y="12px"> </tspan><tspan alignment-baseline="mathematical" x="126px" y="12px">B</tspan></text><text font-size="24px" font-family="'tldraw_draw', sans-serif" font-style="normal" font-weight="normal" line-height="32.400000000000006px" dominant-baseline="mathematical" alignment-baseline="mathematical" stroke="none" stroke-width="2px" fill="#1d1d1d"><tspan alignment-baseline="mathematical" x="0px" y="12px">Exchange</tspan><tspan alignment-baseline="mathematical" x="118px" y="12px"> </tspan><tspan alignment-baseline="mathematical" x="126px" y="12px">B</tspan></text></g></g><g transform="matrix(1, 0, 0, 1, 337.0078, 576.5)" opacity="1"><g><text font-size="24px" font-family="'tldraw_draw', sans-serif" font-style="normal" font-weight="normal" line-height="32.400000000000006px" dominant-baseline="mathematical" alignment-baseline="mathematical" stroke="rgb(249, 250, 251)" stroke-width="2px" fill="rgb(249, 250, 251)"><tspan alignment-baseline="mathematical" x="0px" y="12px">Writer</tspan><tspan alignment-baseline="mathematical" x="79px" y="12px"> </tspan><tspan alignment-baseline="mathematical" x="87px" y="12px">B</tspan></text><text font-size="24px" font-family="'tldraw_draw', sans-serif" font-style="normal" font-weight="normal" line-height="32.400000000000006px" dominant-baseline="mathematical" alignment-baseline="mathematical" stroke="none" stroke-width="2px" fill="#1d1d1d"><tspan alignment-baseline="mathematical" x="0px" y="12px">Writer</tspan><tspan alignment-baseline="mathematical" x="79px" y="12px"> </tspan><tspan alignment-baseline="mathematical" x="87px" y="12px">B</tspan></text></g></g><g transform="matrix(1, 0, 0, 1, 505.9531, 249.5)" opacity="1"><g><text font-size="24px" font-family="'tldraw_draw', sans-serif" font-style="normal" font-weight="normal" line-height="32.400000000000006px" dominant-baseline="mathematical" alignment-baseline="mathematical" stroke="rgb(249, 250, 251)" stroke-width="2px" fill="rgb(249, 250, 251)"><tspan alignment-baseline="mathematical" x="0px" y="12px">Exchange</tspan><tspan alignment-baseline="mathematical" x="118px" y="12px"> </tspan><tspan alignment-baseline="mathematical" x="126px" y="12px">C</tspan></text><text font-size="24px" font-family="'tldraw_draw', sans-serif" font-style="normal" font-weight="normal" line-height="32.400000000000006px" dominant-baseline="mathematical" alignment-baseline="mathematical" stroke="none" stroke-width="2px" fill="#1d1d1d"><tspan alignment-baseline="mathematical" x="0px" y="12px">Exchange</tspan><tspan alignment-baseline="mathematical" x="118px" y="12px"> </tspan><tspan alignment-baseline="mathematical" x="126px" y="12px">C</tspan></text></g></g><g transform="matrix(1, 0, 0, 1, 528.9688, 576.5)" opacity="1"><g><text font-size="24px" font-family="'tldraw_draw', sans-serif" font-style="normal" font-weight="normal" line-height="32.400000000000006px" dominant-baseline="mathematical" alignment-baseline="mathematical" stroke="rgb(249, 250, 251)" stroke-width="2px" fill="rgb(249, 250, 251)"><tspan alignment-baseline="mathematical" x="0px" y="12px">Writer</tspan><tspan alignment-baseline="mathematical" x="80px" y="12px"> </tspan><tspan alignment-baseline="mathematical" x="88px" y="12px">C</tspan></text><text font-size="24px" font-family="'tldraw_draw', sans-serif" font-style="normal" font-weight="normal" line-height="32.400000000000006px" dominant-baseline="mathematical" alignment-baseline="mathematical" stroke="none" stroke-width="2px" fill="#1d1d1d"><tspan alignment-baseline="mathematical" x="0px" y="12px">Writer</tspan><tspan alignment-baseline="mathematical" x="80px" y="12px"> </tspan><tspan alignment-baseline="mathematical" x="88px" y="12px">C</tspan></text></g></g><g transform="matrix(1, 0, 0, 1, 697.0313, 249.5)" opacity="1"><g><text font-size="24px" font-family="'tldraw_draw', sans-serif" font-style="normal" font-weight="normal" line-height="32.400000000000006px" dominant-baseline="mathematical" alignment-baseline="mathematical" stroke="rgb(249, 250, 251)" stroke-width="2px" fill="rgb(249, 250, 251)"><tspan alignment-baseline="mathematical" x="0px" y="12px">Exchange</tspan><tspan alignment-baseline="mathematical" x="117px" y="12px"> </tspan><tspan alignment-baseline="mathematical" x="125px" y="12px">D</tspan></text><text font-size="24px" font-family="'tldraw_draw', sans-serif" font-style="normal" font-weight="normal" line-height="32.400000000000006px" dominant-baseline="mathematical" alignment-baseline="mathematical" stroke="none" stroke-width="2px" fill="#1d1d1d"><tspan alignment-baseline="mathematical" x="0px" y="12px">Exchange</tspan><tspan alignment-baseline="mathematical" x="117px" y="12px"> </tspan><tspan alignment-baseline="mathematical" x="125px" y="12px">D</tspan></text></g></g><g transform="matrix(1, 0, 0, 1, 720.0469, 576.5)" opacity="1"><g><text font-size="24px" font-family="'tldraw_draw', sans-serif" font-style="normal" font-weight="normal" line-height="32.400000000000006px" dominant-baseline="mathematical" alignment-baseline="mathematical" stroke="rgb(249, 250, 251)" stroke-width="2px" fill="rgb(249, 250, 251)"><tspan alignment-baseline="mathematical" x="0px" y="12px">Writer</tspan><tspan alignment-baseline="mathematical" x="79px" y="12px"> </tspan><tspan alignment-baseline="mathematical" x="87px" y="12px">D</tspan></text><text font-size="24px" font-family="'tldraw_draw', sans-serif" font-style="normal" font-weight="normal" line-height="32.400000000000006px" dominant-baseline="mathematical" alignment-baseline="mathematical" stroke="none" stroke-width="2px" fill="#1d1d1d"><tspan alignment-baseline="mathematical" x="0px" y="12px">Writer</tspan><tspan alignment-baseline="mathematical" x="79px" y="12px"> </tspan><tspan alignment-baseline="mathematical" x="87px" y="12px">D</tspan></text></g></g><g transform="matrix(1, 0, 0, 1, 889.5078, 249.5)" opacity="1"><g><text font-size="24px" font-family="'tldraw_draw', sans-serif" font-style="normal" font-weight="normal" line-height="32.400000000000006px" dominant-baseline="mathematical" alignment-baseline="mathematical" stroke="rgb(249, 250, 251)" stroke-width="2px" fill="rgb(249, 250, 251)"><tspan alignment-baseline="mathematical" x="0px" y="12px">Exchange</tspan><tspan alignment-baseline="mathematical" x="117px" y="12px"> </tspan><tspan alignment-baseline="mathematical" x="125px" y="12px">E</tspan></text><text font-size="24px" font-family="'tldraw_draw', sans-serif" font-style="normal" font-weight="normal" line-height="32.400000000000006px" dominant-baseline="mathematical" alignment-baseline="mathematical" stroke="none" stroke-width="2px" fill="#1d1d1d"><tspan alignment-baseline="mathematical" x="0px" y="12px">Exchange</tspan><tspan alignment-baseline="mathematical" x="117px" y="12px"> </tspan><tspan alignment-baseline="mathematical" x="125px" y="12px">E</tspan></text></g></g><g transform="matrix(1, 0, 0, 1, 912.5313, 576.5)" opacity="1"><g><text font-size="24px" font-family="'tldraw_draw', sans-serif" font-style="normal" font-weight="normal" line-height="32.400000000000006px" dominant-baseline="mathematical" alignment-baseline="mathematical" stroke="rgb(249, 250, 251)" stroke-width="2px" fill="rgb(249, 250, 251)"><tspan alignment-baseline="mathematical" x="0px" y="12px">Writer</tspan><tspan alignment-baseline="mathematical" x="79px" y="12px"> </tspan><tspan alignment-baseline="mathematical" x="87px" y="12px">E</tspan></text><text font-size="24px" font-family="'tldraw_draw', sans-serif" font-style="normal" font-weight="normal" line-height="32.400000000000006px" dominant-baseline="mathematical" alignment-baseline="mathematical" stroke="none" stroke-width="2px" fill="#1d1d1d"><tspan alignment-baseline="mathematical" x="0px" y="12px">Writer</tspan><tspan alignment-baseline="mathematical" x="79px" y="12px"> </tspan><tspan alignment-baseline="mathematical" x="87px" y="12px">E</tspan></text></g></g><g transform="matrix(1, 0, 0, 1, 1082.3594, 249.5)" opacity="1"><g><text font-size="24px" font-family="'tldraw_draw', sans-serif" font-style="normal" font-weight="normal" line-height="32.400000000000006px" dominant-baseline="mathematical" alignment-baseline="mathematical" stroke="rgb(249, 250, 251)" stroke-width="2px" fill="rgb(249, 250, 251)"><tspan alignment-baseline="mathematical" x="0px" y="12px">Exchange</tspan><tspan alignment-baseline="mathematical" x="117px" y="12px"> </tspan><tspan alignment-baseline="mathematical" x="126px" y="12px">F</tspan></text><text font-size="24px" font-family="'tldraw_draw', sans-serif" font-style="normal" font-weight="normal" line-height="32.400000000000006px" dominant-baseline="mathematical" alignment-baseline="mathematical" stroke="none" stroke-width="2px" fill="#1d1d1d"><tspan alignment-baseline="mathematical" x="0px" y="12px">Exchange</tspan><tspan alignment-baseline="mathematical" x="117px" y="12px"> </tspan><tspan alignment-baseline="mathematical" x="126px" y="12px">F</tspan></text></g></g><g transform="matrix(1, 0, 0, 1, 1105.3828, 576.5)" opacity="1"><g><text font-size="24px" font-family="'tldraw_draw', sans-serif" font-style="normal" font-weight="normal" line-height="32.400000000000006px" dominant-baseline="mathematical" alignment-baseline="mathematical" stroke="rgb(249, 250, 251)" stroke-width="2px" fill="rgb(249, 250, 251)"><tspan alignment-baseline="mathematical" x="0px" y="12px">Writer</tspan><tspan alignment-baseline="mathematical" x="79px" y="12px"> </tspan><tspan alignment-baseline="mathematical" x="88px" y="12px">F</tspan></text><text font-size="24px" font-family="'tldraw_draw', sans-serif" font-style="normal" font-weight="normal" line-height="32.400000000000006px" dominant-baseline="mathematical" alignment-baseline="mathematical" stroke="none" stroke-width="2px" fill="#1d1d1d"><tspan alignment-baseline="mathematical" x="0px" y="12px">Writer</tspan><tspan alignment-baseline="mathematical" x="79px" y="12px"> </tspan><tspan alignment-baseline="mathematical" x="88px" y="12px">F</tspan></text></g></g><g transform="matrix(1, 0, 0, 1, 382, 157)" opacity="1"><path stroke-width="0" stroke="none" fill="#1d1d1d" d="M2.5515,66.7032 Q2.3814,68.2988 2.3079,69.9005 T2.1544,73.1034 1.99,76.3056 1.8172,79.5073 1.6665,81.3813 1.4575,81.8935 1.0959,82.3121 0.6196,82.5933 0.0784,82.7078 -0.471,82.6434 -0.9711,82.4069 -1.3695,82.0232 -1.6246,81.5323 -1.7095,80.9857 -1.6154,80.4406 -1.3523,79.9541 -0.9475,79.577 -0.4435,79.349 0.1069,79.2938 0.6461,79.4172 1.1177,79.7064 1.4722,80.131 1.6726,80.6466 1.6979,81.1992 1.5454,81.7309 1.2311,82.1861 0.7879,82.5172 0.2622,82.6893 -0.2909,82.6846 -0.8136,82.5035 -1.2511,82.165 -1.5576,81.7046 -1.7011,81.1703 -1.729,80.8917 -1.6172,79.2927 -1.39,76.0944 -1.1544,72.8966 -0.9079,69.6995 -0.7515,66.4968 -0.6355,64.5671 -0.3453,63.9741 0.1497,63.5374 0.7742,63.3233 1.433,63.3645 2.0259,63.6548 2.4626,64.1498 2.6767,64.7742 2.7216,65.1077 2.5515,66.7032 Z"/></g><g transform="matrix(1, 0, 0, 1, 386, 484)" opacity="1"><path stroke-width="0" stroke="none" fill="#1d1d1d" d="M2.5515,66.7032 Q2.3814,68.2988 2.3079,69.9005 T2.1544,73.1034 1.99,76.3056 1.8172,79.5073 1.6665,81.3813 1.4575,81.8935 1.0959,82.3121 0.6196,82.5933 0.0784,82.7078 -0.471,82.6434 -0.9711,82.4069 -1.3695,82.0232 -1.6246,81.5323 -1.7095,80.9857 -1.6154,80.4406 -1.3523,79.9541 -0.9475,79.577 -0.4435,79.349 0.1069,79.2938 0.6461,79.4172 1.1177,79.7064 1.4722,80.131 1.6726,80.6466 1.6979,81.1992 1.5454,81.7309 1.2311,82.1861 0.7879,82.5172 0.2622,82.6893 -0.2909,82.6846 -0.8136,82.5035 -1.2511,82.165 -1.5576,81.7046 -1.7011,81.1703 -1.729,80.8917 -1.6172,79.2927 -1.39,76.0944 -1.1544,72.8966 -0.9079,69.6995 -0.7515,66.4968 -0.6355,64.5671 -0.3453,63.9741 0.1497,63.5374 0.7742,63.3233 1.433,63.3645 2.0259,63.6548 2.4626,64.1498 2.6767,64.7742 2.7216,65.1077 2.5515,66.7032 Z"/></g><g transform="matrix(1, 0, 0, 1, 958, 157)" opacity="1"><path stroke-width="0" stroke="none" fill="#1d1d1d" d="M2.5515,66.7032 Q2.3814,68.2988 2.3079,69.9005 T2.1544,73.1034 1.99,76.3056 1.8172,79.5073 1.6665,81.3813 1.4575,81.8935 1.0959,82.3121 0.6196,82.5933 0.0784,82.7078 -0.471,82.6434 -0.9711,82.4069 -1.3695,82.0232 -1.6246,81.5323 -1.7095,80.9857 -1.6154,80.4406 -1.3523,79.9541 -0.9475,79.577 -0.4435,79.349 0.1069,79.2938 0.6461,79.4172 1.1177,79.7064 1.4722,80.131 1.6726,80.6466 1.6979,81.1992 1.5454,81.7309 1.2311,82.1861 0.7879,82.5172 0.2622,82.6893 -0.2909,82.6846 -0.8136,82.5035 -1.2511,82.165 -1.5576,81.7046 -1.7011,81.1703 -1.729,80.8917 -1.6172,79.2927 -1.39,76.0944 -1.1544,72.8966 -0.9079,69.6995 -0.7515,66.4968 -0.6355,64.5671 -0.3453,63.9741 0.1497,63.5374 0.7742,63.3233 1.433,63.3645 2.0259,63.6548 2.4626,64.1498 2.6767,64.7742 2.7216,65.1077 2.5515,66.7032 Z"/></g><g transform="matrix(1, 0, 0, 1, 962, 484)" opacity="1"><path stroke-width="0" stroke="none" fill="#1d1d1d" d="M2.5515,66.7032 Q2.3814,68.2988 2.3079,69.9005 T2.1544,73.1034 1.99,76.3056 1.8172,79.5073 1.6665,81.3813 1.4575,81.8935 1.0959,82.3121 0.6196,82.5933 0.0784,82.7078 -0.471,82.6434 -0.9711,82.4069 -1.3695,82.0232 -1.6246,81.5323 -1.7095,80.9857 -1.6154,80.4406 -1.3523,79.9541 -0.9475,79.577 -0.4435,79.349 0.1069,79.2938 0.6461,79.4172 1.1177,79.7064 1.4722,80.131 1.6726,80.6466 1.6979,81.1992 1.5454,81.7309 1.2311,82.1861 0.7879,82.5172 0.2622,82.6893 -0.2909,82.6846 -0.8136,82.5035 -1.2511,82.165 -1.5576,81.7046 -1.7011,81.1703 -1.729,80.8917 -1.6172,79.2927 -1.39,76.0944 -1.1544,72.8966 -0.9079,69.6995 -0.7515,66.4968 -0.6355,64.5671 -0.3453,63.9741 0.1497,63.5374 0.7742,63.3233 1.433,63.3645 2.0259,63.6548 2.4626,64.1498 2.6767,64.7742 2.7216,65.1077 2.5515,66.7032 Z"/></g><g transform="matrix(1, 0, 0, 1, 1150, 157)" opacity="1"><path stroke-width="0" stroke="none" fill="#1d1d1d" d="M2.5515,66.7032 Q2.3814,68.2988 2.3079,69.9005 T2.1544,73.1034 1.99,76.3056 1.8172,79.5073 1.6665,81.3813 1.4575,81.8935 1.0959,82.3121 0.6196,82.5933 0.0784,82.7078 -0.471,82.6434 -0.9711,82.4069 -1.3695,82.0232 -1.6246,81.5323 -1.7095,80.9857 -1.6154,80.4406 -1.3523,79.9541 -0.9475,79.577 -0.4435,79.349 0.1069,79.2938 0.6461,79.4172 1.1177,79.7064 1.4722,80.131 1.6726,80.6466 1.6979,81.1992 1.5454,81.7309 1.2311,82.1861 0.7879,82.5172 0.2622,82.6893 -0.2909,82.6846 -0.8136,82.5035 -1.2511,82.165 -1.5576,81.7046 -1.7011,81.1703 -1.729,80.8917 -1.6172,79.2927 -1.39,76.0944 -1.1544,72.8966 -0.9079,69.6995 -0.7515,66.4968 -0.6355,64.5671 -0.3453,63.9741 0.1497,63.5374 0.7742,63.3233 1.433,63.3645 2.0259,63.6548 2.4626,64.1498 2.6767,64.7742 2.7216,65.1077 2.5515,66.7032 Z"/></g><g transform="matrix(1, 0, 0, 1, 1154, 484)" opacity="1"><path stroke-width="0" stroke="none" fill="#1d1d1d" d="M2.5515,66.7032 Q2.3814,68.2988 2.3079,69.9005 T2.1544,73.1034 1.99,76.3056 1.8172,79.5073 1.6665,81.3813 1.4575,81.8935 1.0959,82.3121 0.6196,82.5933 0.0784,82.7078 -0.471,82.6434 -0.9711,82.4069 -1.3695,82.0232 -1.6246,81.5323 -1.7095,80.9857 -1.6154,80.4406 -1.3523,79.9541 -0.9475,79.577 -0.4435,79.349 0.1069,79.2938 0.6461,79.4172 1.1177,79.7064 1.4722,80.131 1.6726,80.6466 1.6979,81.1992 1.5454,81.7309 1.2311,82.1861 0.7879,82.5172 0.2622,82.6893 -0.2909,82.6846 -0.8136,82.5035 -1.2511,82.165 -1.5576,81.7046 -1.7011,81.1703 -1.729,80.8917 -1.6172,79.2927 -1.39,76.0944 -1.1544,72.8966 -0.9079,69.6995 -0.7515,66.4968 -0.6355,64.5671 -0.3453,63.9741 0.1497,63.5374 0.7742,63.3233 1.433,63.3645 2.0259,63.6548 2.4626,64.1498 2.6767,64.7742 2.7216,65.1077 2.5515,66.7032 Z"/></g><g transform="matrix(1, 0, 0, 1, 189, 220)" opacity="1"><path stroke-width="0" stroke="none" fill="#1d1d1d" d="M9.8146,-1.664 Q19.631,-1.5779 29.4474,-1.5183 T49.0802,-1.4184 68.713,-1.3515 88.3457,-1.3086 107.9784,-1.2832 127.6111,-1.2703 147.2437,-1.2666 166.8764,-1.2696 186.5091,-1.2773 206.1417,-1.2885 225.7744,-1.3023 245.4071,-1.3178 265.0397,-1.3347 284.6724,-1.3526 304.305,-1.3712 323.9377,-1.3903 343.5703,-1.4097 363.203,-1.4294 382.8356,-1.4493 402.4683,-1.4693 422.1009,-1.4895 441.7336,-1.5097 461.3663,-1.53 480.9989,-1.5503 500.6316,-1.5706 520.2642,-1.591 539.8969,-1.6113 559.5295,-1.6317 579.1622,-1.6521 598.7948,-1.6725 618.4275,-1.6929 638.0601,-1.7133 657.6928,-1.7337 677.3254,-1.7541 696.9581,-1.7745 716.5907,-1.7949 736.2234,-1.8153 755.8561,-1.8357 775.4887,-1.8561 795.1214,-1.8765 814.754,-1.8969 834.3867,-1.9173 854.0193,-1.9378 873.652,-1.9582 893.2846,-1.9786 912.9173,-1.999 932.5499,-2.0194 952.1826,-2.0398 962.1666,-2.0227 962.4844,-1.916 962.7515,-1.7133 962.94,-1.436 963.03,-1.1131 963.0122,-0.7782 962.8884,-0.4667 962.6716,-0.2109 962.3844,-0.0378 962.0571,0.0346 961.7237,-0.0013 961.4193,-0.1418 961.1757,-0.3722 961.0184,-0.6683 960.9638,-0.9991 961.0178,-1.33 961.1746,-1.6263 961.4178,-1.8571 961.7219,-1.9982 962.0552,-2.0347 962.3827,-1.9629 962.6702,-1.7903 962.8874,-1.5349 963.0118,-1.2236 963.0302,-0.8888 962.9407,-0.5657 962.7528,-0.288 962.486,-0.0849 962.1684,0.0224 962.0009,0.05 952.1848,0.0602 932.5521,0.0806 912.9195,0.101 893.2868,0.1214 873.6542,0.1418 854.0215,0.1622 834.3888,0.1827 814.7562,0.2031 795.1235,0.2235 775.4909,0.2439 755.8582,0.2643 736.2256,0.2847 716.5929,0.3051 696.9603,0.3255 677.3276,0.3459 657.695,0.3663 638.0623,0.3868 618.4297,0.4072 598.797,0.4276 579.1644,0.448 559.5317,0.4684 539.8991,0.4889 520.2664,0.5093 500.6337,0.5298 481.0011,0.5503 461.3684,0.5708 441.7358,0.5913 422.1031,0.6119 402.4705,0.6326 382.8378,0.6534 363.2052,0.6743 343.5725,0.6954 323.9399,0.7168 304.3072,0.7385 284.6746,0.7608 265.0419,0.7837 245.4093,0.8076 225.7766,0.8329 206.144,0.8599 186.5113,0.8895 166.8787,0.9226 147.2461,0.9605 127.6134,1.005 107.9808,1.0587 88.3482,1.125 68.7156,1.2086 49.0831,1.3163 29.4505,1.4571 9.818,1.6435 -0.3331,1.6837 -0.9521,1.4281 -1.4261,0.955 -1.6831,0.3365 -1.6837,-0.3332 -1.428,-0.9522 -0.9549,-1.4262 -0.3364,-1.6831 -0.0017,-1.75 9.8146,-1.664 Z"/></g><g transform="matrix(1, 0, 0, 1, 193, 547)" opacity="1"><path stroke-width="0" stroke="none" fill="#1d1d1d" d="M9.8146,-1.664 Q19.631,-1.5779 29.4474,-1.5183 T49.0802,-1.4184 68.713,-1.3515 88.3457,-1.3086 107.9784,-1.2832 127.6111,-1.2703 147.2437,-1.2666 166.8764,-1.2696 186.5091,-1.2773 206.1417,-1.2885 225.7744,-1.3023 245.4071,-1.3178 265.0397,-1.3347 284.6724,-1.3526 304.305,-1.3712 323.9377,-1.3903 343.5703,-1.4097 363.203,-1.4294 382.8356,-1.4493 402.4683,-1.4693 422.1009,-1.4895 441.7336,-1.5097 461.3663,-1.53 480.9989,-1.5503 500.6316,-1.5706 520.2642,-1.591 539.8969,-1.6113 559.5295,-1.6317 579.1622,-1.6521 598.7948,-1.6725 618.4275,-1.6929 638.0601,-1.7133 657.6928,-1.7337 677.3254,-1.7541 696.9581,-1.7745 716.5907,-1.7949 736.2234,-1.8153 755.8561,-1.8357 775.4887,-1.8561 795.1214,-1.8765 814.754,-1.8969 834.3867,-1.9173 854.0193,-1.9378 873.652,-1.9582 893.2846,-1.9786 912.9173,-1.999 932.5499,-2.0194 952.1826,-2.0398 962.1666,-2.0227 962.4844,-1.916 962.7515,-1.7133 962.94,-1.436 963.03,-1.1131 963.0122,-0.7782 962.8884,-0.4667 962.6716,-0.2109 962.3844,-0.0378 962.0571,0.0346 961.7237,-0.0013 961.4193,-0.1418 961.1757,-0.3722 961.0184,-0.6683 960.9638,-0.9991 961.0178,-1.33 961.1746,-1.6263 961.4178,-1.8571 961.7219,-1.9982 962.0552,-2.0347 962.3827,-1.9629 962.6702,-1.7903 962.8874,-1.5349 963.0118,-1.2236 963.0302,-0.8888 962.9407,-0.5657 962.7528,-0.288 962.486,-0.0849 962.1684,0.0224 962.0009,0.05 952.1848,0.0602 932.5521,0.0806 912.9195,0.101 893.2868,0.1214 873.6542,0.1418 854.0215,0.1622 834.3888,0.1827 814.7562,0.2031 795.1235,0.2235 775.4909,0.2439 755.8582,0.2643 736.2256,0.2847 716.5929,0.3051 696.9603,0.3255 677.3276,0.3459 657.695,0.3663 638.0623,0.3868 618.4297,0.4072 598.797,0.4276 579.1644,0.448 559.5317,0.4684 539.8991,0.4889 520.2664,0.5093 500.6337,0.5298 481.0011,0.5503 461.3684,0.5708 441.7358,0.5913 422.1031,0.6119 402.4705,0.6326 382.8378,0.6534 363.2052,0.6743 343.5725,0.6954 323.9399,0.7168 304.3072,0.7385 284.6746,0.7608 265.0419,0.7837 245.4093,0.8076 225.7766,0.8329 206.144,0.8599 186.5113,0.8895 166.8787,0.9226 147.2461,0.9605 127.6134,1.005 107.9808,1.0587 88.3482,1.125 68.7156,1.2086 49.0831,1.3163 29.4505,1.4571 9.818,1.6435 -0.3331,1.6837 -0.9521,1.4281 -1.4261,0.955 -1.6831,0.3365 -1.6837,-0.3332 -1.428,-0.9522 -0.9549,-1.4262 -0.3364,-1.6831 -0.0017,-1.75 9.8146,-1.664 Z"/></g><g transform="matrix(1, 0, 0, 1, 191.3393, 312.4864)" opacity="1"><path stroke-width="0" stroke="none" fill="#1d1d1d" d="M9.8146,-1.664 Q19.631,-1.5779 29.4474,-1.5183 T49.0802,-1.4184 68.713,-1.3515 88.3457,-1.3086 107.9784,-1.2832 127.6111,-1.2703 147.2437,-1.2666 166.8764,-1.2696 186.5091,-1.2773 206.1417,-1.2885 225.7744,-1.3023 245.4071,-1.3178 265.0397,-1.3347 284.6724,-1.3526 304.305,-1.3712 323.9377,-1.3903 343.5703,-1.4097 363.203,-1.4294 382.8356,-1.4493 402.4683,-1.4693 422.1009,-1.4895 441.7336,-1.5097 461.3663,-1.53 480.9989,-1.5503 500.6316,-1.5706 520.2642,-1.591 539.8969,-1.6113 559.5295,-1.6317 579.1622,-1.6521 598.7948,-1.6725 618.4275,-1.6929 638.0601,-1.7133 657.6928,-1.7337 677.3254,-1.7541 696.9581,-1.7745 716.5907,-1.7949 736.2234,-1.8153 755.8561,-1.8357 775.4887,-1.8561 795.1214,-1.8765 814.754,-1.8969 834.3867,-1.9173 854.0193,-1.9378 873.652,-1.9582 893.2846,-1.9786 912.9173,-1.999 932.5499,-2.0194 952.1826,-2.0398 962.1666,-2.0227 962.4844,-1.916 962.7515,-1.7133 962.94,-1.436 963.03,-1.1131 963.0122,-0.7782 962.8884,-0.4667 962.6716,-0.2109 962.3844,-0.0378 962.0571,0.0346 961.7237,-0.0013 961.4193,-0.1418 961.1757,-0.3722 961.0184,-0.6683 960.9638,-0.9991 961.0178,-1.33 961.1746,-1.6263 961.4178,-1.8571 961.7219,-1.9982 962.0552,-2.0347 962.3827,-1.9629 962.6702,-1.7903 962.8874,-1.5349 963.0118,-1.2236 963.0302,-0.8888 962.9407,-0.5657 962.7528,-0.288 962.486,-0.0849 962.1684,0.0224 962.0009,0.05 952.1848,0.0602 932.5521,0.0806 912.9195,0.101 893.2868,0.1214 873.6542,0.1418 854.0215,0.1622 834.3888,0.1827 814.7562,0.2031 795.1235,0.2235 775.4909,0.2439 755.8582,0.2643 736.2256,0.2847 716.5929,0.3051 696.9603,0.3255 677.3276,0.3459 657.695,0.3663 638.0623,0.3868 618.4297,0.4072 598.797,0.4276 579.1644,0.448 559.5317,0.4684 539.8991,0.4889 520.2664,0.5093 500.6337,0.5298 481.0011,0.5503 461.3684,0.5708 441.7358,0.5913 422.1031,0.6119 402.4705,0.6326 382.8378,0.6534 363.2052,0.6743 343.5725,0.6954 323.9399,0.7168 304.3072,0.7385 284.6746,0.7608 265.0419,0.7837 245.4093,0.8076 225.7766,0.8329 206.144,0.8599 186.5113,0.8895 166.8787,0.9226 147.2461,0.9605 127.6134,1.005 107.9808,1.0587 88.3482,1.125 68.7156,1.2086 49.0831,1.3163 29.4505,1.4571 9.818,1.6435 -0.3331,1.6837 -0.9521,1.4281 -1.4261,0.955 -1.6831,0.3365 -1.6837,-0.3332 -1.428,-0.9522 -0.9549,-1.4262 -0.3364,-1.6831 -0.0017,-1.75 9.8146,-1.664 Z"/></g><g transform="matrix(1, 0, 0, 1, 904, -24)" opacity="0.5"><g stroke-width="2" stroke="#1d1d1d" fill="none"><line x1="0" y1="0" x2="234" y2="0" stroke-dasharray="4.103448275862069 4.249999999999999" stroke-dashoffset="2"/><line x1="234" y1="0" x2="234" y2="200" stroke-dasharray="4.08 4.25" stroke-dashoffset="2"/><line x1="234" y1="200" x2="0" y2="200" stroke-dasharray="4.103448275862069 4.249999999999999" stroke-dashoffset="2"/><line x1="0" y1="200" x2="0" y2="0" stroke-dasharray="4.08 4.25" stroke-dashoffset="2"/><g><text font-size="18px" font-family="'tldraw_draw', sans-serif" font-style="normal" font-weight="normal" line-height="24.3px" dominant-baseline="mathematical" alignment-baseline="mathematical" stroke-width="2" fill="rgb(249, 250, 251)" stroke="rgb(249, 250, 251)"><tspan alignment-baseline="mathematical" x="16px" y="25px">Each</tspan><tspan alignment-baseline="mathematical" x="60px" y="25px"> </tspan><tspan alignment-baseline="mathematical" x="66px" y="25px">exchange</tspan><tspan alignment-baseline="mathematical" x="153px" y="25px"> </tspan><tspan alignment-baseline="mathematical" x="159px" y="25px">is</tspan><tspan alignment-baseline="mathematical" x="174px" y="25px"> </tspan><tspan alignment-baseline="mathematical" x="180px" y="25px">a</tspan><tspan alignment-baseline="mathematical" x="192px" y="25px"> </tspan><tspan alignment-baseline="mathematical" x="16px" y="49px">
</tspan><tspan alignment-baseline="mathematical" x="16px" y="49px">child</tspan><tspan alignment-baseline="mathematical" x="59px" y="49px"> </tspan><tspan alignment-baseline="mathematical" x="66px" y="49px">class</tspan><tspan alignment-baseline="mathematical" x="111px" y="49px"> </tspan><tspan alignment-baseline="mathematical" x="117px" y="49px">of</tspan><tspan alignment-baseline="mathematical" x="136px" y="49px"> </tspan><tspan alignment-baseline="mathematical" x="16px" y="73px">
</tspan><tspan alignment-baseline="mathematical" x="16px" y="73px">ExchangeBase.</tspan><tspan alignment-baseline="mathematical" x="150px" y="73px"> </tspan><tspan alignment-baseline="mathematical" x="157px" y="73px">They</tspan><tspan alignment-baseline="mathematical" x="200px" y="73px"> </tspan><tspan alignment-baseline="mathematical" x="16px" y="97px">
</tspan><tspan alignment-baseline="mathematical" x="16px" y="97px">all</tspan><tspan alignment-baseline="mathematical" x="39px" y="97px"> </tspan><tspan alignment-baseline="mathematical" x="45px" y="97px">implement</tspan><tspan alignment-baseline="mathematical" x="140px" y="97px"> </tspan><tspan alignment-baseline="mathematical" x="16px" y="121px">
</tspan><tspan alignment-baseline="mathematical" x="16px" y="121px">fetch_balance</tspan><tspan alignment-baseline="mathematical" x="146px" y="121px"> </tspan><tspan alignment-baseline="mathematical" x="152px" y="121px">and</tspan><tspan alignment-baseline="mathematical" x="188px" y="121px"> </tspan><tspan alignment-baseline="mathematical" x="16px" y="145px">
</tspan><tspan alignment-baseline="mathematical" x="16px" y="145px">fetch_positions</tspan><tspan alignment-baseline="mathematical" x="156px" y="145px"> </tspan><tspan alignment-baseline="mathematical" x="162px" y="145px">given</tspan><tspan alignment-baseline="mathematical" x="211px" y="145px"> </tspan><tspan alignment-baseline="mathematical" x="16px" y="169px">
</tspan><tspan alignment-baseline="mathematical" x="16px" y="169px">their</tspan><tspan alignment-baseline="mathematical" x="60px" y="169px"> </tspan><tspan alignment-baseline="mathematical" x="67px" y="169px">APIs.</tspan></text><text font-size="18px" font-family="'tldraw_draw', sans-serif" font-style="normal" font-weight="normal" line-height="24.3px" dominant-baseline="mathematical" alignment-baseline="mathematical" fill="#1d1d1d" stroke="none"><tspan alignment-baseline="mathematical" x="16px" y="25px">Each</tspan><tspan alignment-baseline="mathematical" x="60px" y="25px"> </tspan><tspan alignment-baseline="mathematical" x="66px" y="25px">exchange</tspan><tspan alignment-baseline="mathematical" x="153px" y="25px"> </tspan><tspan alignment-baseline="mathematical" x="159px" y="25px">is</tspan><tspan alignment-baseline="mathematical" x="174px" y="25px"> </tspan><tspan alignment-baseline="mathematical" x="180px" y="25px">a</tspan><tspan alignment-baseline="mathematical" x="192px" y="25px"> </tspan><tspan alignment-baseline="mathematical" x="16px" y="49px">
</tspan><tspan alignment-baseline="mathematical" x="16px" y="49px">child</tspan><tspan alignment-baseline="mathematical" x="59px" y="49px"> </tspan><tspan alignment-baseline="mathematical" x="66px" y="49px">class</tspan><tspan alignment-baseline="mathematical" x="111px" y="49px"> </tspan><tspan alignment-baseline="mathematical" x="117px" y="49px">of</tspan><tspan alignment-baseline="mathematical" x="136px" y="49px"> </tspan><tspan alignment-baseline="mathematical" x="16px" y="73px">
</tspan><tspan alignment-baseline="mathematical" x="16px" y="73px">ExchangeBase.</tspan><tspan alignment-baseline="mathematical" x="150px" y="73px"> </tspan><tspan alignment-baseline="mathematical" x="157px" y="73px">They</tspan><tspan alignment-baseline="mathematical" x="200px" y="73px"> </tspan><tspan alignment-baseline="mathematical" x="16px" y="97px">
</tspan><tspan alignment-baseline="mathematical" x="16px" y="97px">all</tspan><tspan alignment-baseline="mathematical" x="39px" y="97px"> </tspan><tspan alignment-baseline="mathematical" x="45px" y="97px">implement</tspan><tspan alignment-baseline="mathematical" x="140px" y="97px"> </tspan><tspan alignment-baseline="mathematical" x="16px" y="121px">
</tspan><tspan alignment-baseline="mathematical" x="16px" y="121px">fetch_balance</tspan><tspan alignment-baseline="mathematical" x="146px" y="121px"> </tspan><tspan alignment-baseline="mathematical" x="152px" y="121px">and</tspan><tspan alignment-baseline="mathematical" x="188px" y="121px"> </tspan><tspan alignment-baseline="mathematical" x="16px" y="145px">
</tspan><tspan alignment-baseline="mathematical" x="16px" y="145px">fetch_positions</tspan><tspan alignment-baseline="mathematical" x="156px" y="145px"> </tspan><tspan alignment-baseline="mathematical" x="162px" y="145px">given</tspan><tspan alignment-baseline="mathematical" x="211px" y="145px"> </tspan><tspan alignment-baseline="mathematical" x="16px" y="169px">
</tspan><tspan alignment-baseline="mathematical" x="16px" y="169px">their</tspan><tspan alignment-baseline="mathematical" x="60px" y="169px"> </tspan><tspan alignment-baseline="mathematical" x="67px" y="169px">APIs.</tspan></text></g></g></g><g transform="matrix(1, 0, 0, 1, 913, 658)" opacity="0.5"><g stroke-width="2" stroke="#1d1d1d" fill="none"><line x1="0" y1="0" x2="234" y2="0" stroke-dasharray="4.103448275862069 4.249999999999999" stroke-dashoffset="2"/><line x1="234" y1="0" x2="234" y2="176" stroke-dasharray="4.090909090909091 4.285714285714286" stroke-dashoffset="2"/><line x1="234" y1="176" x2="0" y2="176" stroke-dasharray="4.103448275862069 4.249999999999999" stroke-dashoffset="2"/><line x1="0" y1="176" x2="0" y2="0" stroke-dasharray="4.090909090909091 4.285714285714286" stroke-dashoffset="2"/><g><text font-size="18px" font-family="'tldraw_draw', sans-serif" font-style="normal" font-weight="normal" line-height="24.3px" dominant-baseline="mathematical" alignment-baseline="mathematical" stroke-width="2" fill="rgb(249, 250, 251)" stroke="rgb(249, 250, 251)"><tspan alignment-baseline="mathematical" x="16px" y="25px">Each</tspan><tspan alignment-baseline="mathematical" x="60px" y="25px"> </tspan><tspan alignment-baseline="mathematical" x="66px" y="25px">writer</tspan><tspan alignment-baseline="mathematical" x="124px" y="25px"> </tspan><tspan alignment-baseline="mathematical" x="130px" y="25px">is</tspan><tspan alignment-baseline="mathematical" x="145px" y="25px"> </tspan><tspan alignment-baseline="mathematical" x="151px" y="25px">a</tspan><tspan alignment-baseline="mathematical" x="163px" y="25px"> </tspan><tspan alignment-baseline="mathematical" x="169px" y="25px">child</tspan><tspan alignment-baseline="mathematical" x="213px" y="25px"> </tspan><tspan alignment-baseline="mathematical" x="16px" y="49px">
</tspan><tspan alignment-baseline="mathematical" x="16px" y="49px">class</tspan><tspan alignment-baseline="mathematical" x="61px" y="49px"> </tspan><tspan alignment-baseline="mathematical" x="67px" y="49px">of</tspan><tspan alignment-baseline="mathematical" x="86px" y="49px"> </tspan><tspan alignment-baseline="mathematical" x="92px" y="49px">WriterBase.</tspan><tspan alignment-baseline="mathematical" x="198px" y="49px"> </tspan><tspan alignment-baseline="mathematical" x="16px" y="73px">
</tspan><tspan alignment-baseline="mathematical" x="16px" y="73px">They</tspan><tspan alignment-baseline="mathematical" x="59px" y="73px"> </tspan><tspan alignment-baseline="mathematical" x="65px" y="73px">all</tspan><tspan alignment-baseline="mathematical" x="89px" y="73px"> </tspan><tspan alignment-baseline="mathematical" x="95px" y="73px">implement</tspan><tspan alignment-baseline="mathematical" x="190px" y="73px"> </tspan><tspan alignment-baseline="mathematical" x="16px" y="97px">
</tspan><tspan alignment-baseline="mathematical" x="16px" y="97px">update_balance</tspan><tspan alignment-baseline="mathematical" x="165px" y="97px"> </tspan><tspan alignment-baseline="mathematical" x="171px" y="97px">and</tspan><tspan alignment-baseline="mathematical" x="206px" y="97px"> </tspan><tspan alignment-baseline="mathematical" x="16px" y="121px">
</tspan><tspan alignment-baseline="mathematical" x="16px" y="121px">update_positions</tspan><tspan alignment-baseline="mathematical" x="175px" y="121px"> </tspan><tspan alignment-baseline="mathematical" x="16px" y="145px">
</tspan><tspan alignment-baseline="mathematical" x="16px" y="145px">given</tspan><tspan alignment-baseline="mathematical" x="64px" y="145px"> </tspan><tspan alignment-baseline="mathematical" x="71px" y="145px">their</tspan><tspan alignment-baseline="mathematical" x="116px" y="145px"> </tspan><tspan alignment-baseline="mathematical" x="122px" y="145px">APIs.</tspan></text><text font-size="18px" font-family="'tldraw_draw', sans-serif" font-style="normal" font-weight="normal" line-height="24.3px" dominant-baseline="mathematical" alignment-baseline="mathematical" fill="#1d1d1d" stroke="none"><tspan alignment-baseline="mathematical" x="16px" y="25px">Each</tspan><tspan alignment-baseline="mathematical" x="60px" y="25px"> </tspan><tspan alignment-baseline="mathematical" x="66px" y="25px">writer</tspan><tspan alignment-baseline="mathematical" x="124px" y="25px"> </tspan><tspan alignment-baseline="mathematical" x="130px" y="25px">is</tspan><tspan alignment-baseline="mathematical" x="145px" y="25px"> </tspan><tspan alignment-baseline="mathematical" x="151px" y="25px">a</tspan><tspan alignment-baseline="mathematical" x="163px" y="25px"> </tspan><tspan alignment-baseline="mathematical" x="169px" y="25px">child</tspan><tspan alignment-baseline="mathematical" x="213px" y="25px"> </tspan><tspan alignment-baseline="mathematical" x="16px" y="49px">
</tspan><tspan alignment-baseline="mathematical" x="16px" y="49px">class</tspan><tspan alignment-baseline="mathematical" x="61px" y="49px"> </tspan><tspan alignment-baseline="mathematical" x="67px" y="49px">of</tspan><tspan alignment-baseline="mathematical" x="86px" y="49px"> </tspan><tspan alignment-baseline="mathematical" x="92px" y="49px">WriterBase.</tspan><tspan alignment-baseline="mathematical" x="198px" y="49px"> </tspan><tspan alignment-baseline="mathematical" x="16px" y="73px">
</tspan><tspan alignment-baseline="mathematical" x="16px" y="73px">They</tspan><tspan alignment-baseline="mathematical" x="59px" y="73px"> </tspan><tspan alignment-baseline="mathematical" x="65px" y="73px">all</tspan><tspan alignment-baseline="mathematical" x="89px" y="73px"> </tspan><tspan alignment-baseline="mathematical" x="95px" y="73px">implement</tspan><tspan alignment-baseline="mathematical" x="190px" y="73px"> </tspan><tspan alignment-baseline="mathematical" x="16px" y="97px">
</tspan><tspan alignment-baseline="mathematical" x="16px" y="97px">update_balance</tspan><tspan alignment-baseline="mathematical" x="165px" y="97px"> </tspan><tspan alignment-baseline="mathematical" x="171px" y="97px">and</tspan><tspan alignment-baseline="mathematical" x="206px" y="97px"> </tspan><tspan alignment-baseline="mathematical" x="16px" y="121px">
</tspan><tspan alignment-baseline="mathematical" x="16px" y="121px">update_positions</tspan><tspan alignment-baseline="mathematical" x="175px" y="121px"> </tspan><tspan alignment-baseline="mathematical" x="16px" y="145px">
</tspan><tspan alignment-baseline="mathematical" x="16px" y="145px">given</tspan><tspan alignment-baseline="mathematical" x="64px" y="145px"> </tspan><tspan alignment-baseline="mathematical" x="71px" y="145px">their</tspan><tspan alignment-baseline="mathematical" x="116px" y="145px"> </tspan><tspan alignment-baseline="mathematical" x="122px" y="145px">APIs.</tspan></text></g></g></g><g transform="matrix(1, 0, 0, 1, 590.6607, 481)" opacity="0.5"><g stroke-width="2" stroke="#1d1d1d" fill="none"><line x1="0" y1="0" x2="169.99999999999991" y2="0" stroke-dasharray="4.142857142857141 4.349999999999998" stroke-dashoffset="2"/><line x1="169.99999999999991" y1="0" x2="169.99999999999991" y2="56" stroke-dasharray="4.285714285714286 5" stroke-dashoffset="2"/><line x1="169.99999999999991" y1="56" x2="0" y2="56" stroke-dasharray="4.142857142857141 4.349999999999998" stroke-dashoffset="2"/><line x1="0" y1="56" x2="0" y2="0" stroke-dasharray="4.285714285714286 5" stroke-dashoffset="2"/><g><text font-size="18px" font-family="'tldraw_draw', sans-serif" font-style="normal" font-weight="normal" line-height="24.3px" dominant-baseline="mathematical" alignment-baseline="mathematical" stroke-width="2" fill="rgb(249, 250, 251)" stroke="rgb(249, 250, 251)"><tspan alignment-baseline="mathematical" x="16px" y="25px">ZMQ</tspan><tspan alignment-baseline="mathematical" x="58px" y="25px"> </tspan><tspan alignment-baseline="mathematical" x="64px" y="25px">PUB-SUB</tspan></text><text font-size="18px" font-family="'tldraw_draw', sans-serif" font-style="normal" font-weight="normal" line-height="24.3px" dominant-baseline="mathematical" alignment-baseline="mathematical" fill="#1d1d1d" stroke="none"><tspan alignment-baseline="mathematical" x="16px" y="25px">ZMQ</tspan><tspan alignment-baseline="mathematical" x="58px" y="25px"> </tspan><tspan alignment-baseline="mathematical" x="64px" y="25px">PUB-SUB</tspan></text></g></g></g><g transform="matrix(1, 0, 0, 1, 587.9747, 319.1135)" opacity="0.5"><g stroke-width="2" stroke="#1d1d1d" fill="none"><line x1="0" y1="0" x2="169.99999999999991" y2="0" stroke-dasharray="4.142857142857141 4.349999999999998" stroke-dashoffset="2"/><line x1="169.99999999999991" y1="0" x2="169.99999999999991" y2="56" stroke-dasharray="4.285714285714286 5" stroke-dashoffset="2"/><line x1="169.99999999999991" y1="56" x2="0" y2="56" stroke-dasharray="4.142857142857141 4.349999999999998" stroke-dashoffset="2"/><line x1="0" y1="56" x2="0" y2="0" stroke-dasharray="4.285714285714286 5" stroke-dashoffset="2"/><g><text font-size="18px" font-family="'tldraw_draw', sans-serif" font-style="normal" font-weight="normal" line-height="24.3px" dominant-baseline="mathematical" alignment-baseline="mathematical" stroke-width="2" fill="rgb(249, 250, 251)" stroke="rgb(249, 250, 251)"><tspan alignment-baseline="mathematical" x="16px" y="25px">ZMQ</tspan><tspan alignment-baseline="mathematical" x="58px" y="25px"> </tspan><tspan alignment-baseline="mathematical" x="64px" y="25px">PUB-SUB</tspan></text><text font-size="18px" font-family="'tldraw_draw', sans-serif" font-style="normal" font-weight="normal" line-height="24.3px" dominant-baseline="mathematical" alignment-baseline="mathematical" fill="#1d1d1d" stroke="none"><tspan alignment-baseline="mathematical" x="16px" y="25px">ZMQ</tspan><tspan alignment-baseline="mathematical" x="58px" y="25px"> </tspan><tspan alignment-baseline="mathematical" x="64px" y="25px">PUB-SUB</tspan></text></g></g></g><g transform="matrix(1, 0, 0, 1, 381.8854, 288.2934)" opacity="1"><path stroke-width="0" stroke="none" fill="#1d1d1d" d="M0.7909,1.1756 Q0.7605,2.3512 0.7384,3.5269 T0.7004,5.8781 0.6728,8.2293 0.6527,10.5806 0.6382,12.9318 0.6277,15.283 0.6201,17.6343 0.6146,19.9855 0.6106,22.3368 0.5929,23.6096 0.5309,23.7938 0.4132,23.9486 0.2523,24.0577 0.0649,24.1097 -0.1292,24.0992 -0.3098,24.0272 -0.458,23.9013 -0.5582,23.7347 -0.6,23.5448 -0.5789,23.3516 -0.4973,23.1751 -0.3636,23.034 -0.1918,22.9429 0.0001,22.9115 0.1919,22.943 0.3637,23.0341 0.4974,23.1753 0.579,23.3517 0.6,23.545 0.5581,23.7349 0.4579,23.9015 0.3097,24.0273 0.129,24.0992 -0.0651,24.1097 -0.2524,24.0576 -0.4133,23.9485 -0.5309,23.7937 -0.593,23.6094 -0.6089,23.5123 -0.6106,22.3368 -0.6146,19.9855 -0.6201,17.6343 -0.6277,15.283 -0.6382,12.9318 -0.6527,10.5806 -0.6728,8.2293 -0.7004,5.8781 -0.7384,3.5269 -0.7909,1.1756 -0.7901,-0.1572 -0.6698,-0.4476 -0.4475,-0.6698 -0.1571,-0.7901 0.1572,-0.7901 0.4476,-0.6698 0.6698,-0.4475 0.7901,-0.1571 0.8214,0 0.7909,1.1756 Z"/></g><g transform="matrix(1, 0, 0, 1, 385.8854, 615.2934)" opacity="1"><path stroke-width="0" stroke="none" fill="#1d1d1d" d="M0.7909,1.1756 Q0.7605,2.3512 0.7384,3.5269 T0.7004,5.8781 0.6728,8.2293 0.6527,10.5806 0.6382,12.9318 0.6277,15.283 0.6201,17.6343 0.6146,19.9855 0.6106,22.3368 0.5929,23.6096 0.5309,23.7938 0.4132,23.9486 0.2523,24.0577 0.0649,24.1097 -0.1292,24.0992 -0.3098,24.0272 -0.458,23.9013 -0.5582,23.7347 -0.6,23.5448 -0.5789,23.3516 -0.4973,23.1751 -0.3636,23.034 -0.1918,22.9429 0.0001,22.9115 0.1919,22.943 0.3637,23.0341 0.4974,23.1753 0.579,23.3517 0.6,23.545 0.5581,23.7349 0.4579,23.9015 0.3097,24.0273 0.129,24.0992 -0.0651,24.1097 -0.2524,24.0576 -0.4133,23.9485 -0.5309,23.7937 -0.593,23.6094 -0.6089,23.5123 -0.6106,22.3368 -0.6146,19.9855 -0.6201,17.6343 -0.6277,15.283 -0.6382,12.9318 -0.6527,10.5806 -0.6728,8.2293 -0.7004,5.8781 -0.7384,3.5269 -0.7909,1.1756 -0.7901,-0.1572 -0.6698,-0.4476 -0.4475,-0.6698 -0.1571,-0.7901 0.1572,-0.7901 0.4476,-0.6698 0.6698,-0.4475 0.7901,-0.1571 0.8214,0 0.7909,1.1756 Z"/></g><g transform="matrix(1, 0, 0, 1, 571.7713, 314.0894)" opacity="1"><g><defs><mask id="shape_0nvkhPN-Jrna3Z7QHELA-_clip"><rect x="-99.05580827511608" y="-124.24166858042264" width="202.05580827511608" height="292.24166858042264" fill="white"/><path d="M 8.046083481659185 58.79201208210359 L 3 68 L -2.451309713808878 59.02596955631791" fill="none" stroke="none"/></mask></defs><g mask="url(#shape_0nvkhPN-Jrna3Z7QHELA-_clip)"><rect x="-100" y="-100" width="202.05580827511608" height="292.24166858042264" fill="transparent" stroke="none"/><path d="M0.9441917248839218,-24.24166858042264L3,68" fill="none" stroke="#1d1d1d" stroke-width="3.5" stroke-dasharray="none" stroke-dashoffset="none"/></g><path d="M 8.046083481659185 58.79201208210359 L 3 68 L -2.451309713808878 59.02596955631791" fill="none" stroke="#1d1d1d" stroke-width="3.5"/></g></g><g transform="matrix(1, 0, 0, 1, 958.8428, 288.8963)" opacity="1"><path stroke-width="0" stroke="none" fill="#1d1d1d" d="M0.7909,1.1153 Q0.7605,2.2307 0.7384,3.346 T0.7004,5.5767 0.6728,7.8073 0.6527,10.038 0.6382,12.2686 0.6277,14.4993 0.6201,16.73 0.6146,18.9606 0.6106,21.1913 0.5929,22.4038 0.5309,22.5881 0.4132,22.7428 0.2523,22.8519 0.0649,22.9039 -0.1292,22.8934 -0.3098,22.8214 -0.458,22.6956 -0.5582,22.529 -0.6,22.3391 -0.5789,22.1458 -0.4973,21.9694 -0.3636,21.8282 -0.1918,21.7372 0.0001,21.7057 0.1919,21.7372 0.3637,21.8283 0.4974,21.9695 0.579,22.146 0.6,22.3393 0.5581,22.5291 0.4579,22.6957 0.3097,22.8215 0.129,22.8934 -0.0651,22.9039 -0.2524,22.8519 -0.4133,22.7427 -0.5309,22.5879 -0.593,22.4036 -0.6089,22.3065 -0.6106,21.1913 -0.6146,18.9606 -0.6201,16.73 -0.6277,14.4993 -0.6382,12.2686 -0.6527,10.038 -0.6728,7.8073 -0.7004,5.5767 -0.7384,3.346 -0.7909,1.1153 -0.7901,-0.1572 -0.6698,-0.4476 -0.4475,-0.6698 -0.1571,-0.7901 0.1572,-0.7901 0.4476,-0.6698 0.6698,-0.4475 0.7901,-0.1571 0.8214,0 0.7909,1.1153 Z"/></g><g transform="matrix(1, 0, 0, 1, 962.8428, 615.8963)" opacity="1"><path stroke-width="0" stroke="none" fill="#1d1d1d" d="M0.7909,1.1153 Q0.7605,2.2307 0.7384,3.346 T0.7004,5.5767 0.6728,7.8073 0.6527,10.038 0.6382,12.2686 0.6277,14.4993 0.6201,16.73 0.6146,18.9606 0.6106,21.1913 0.5929,22.4038 0.5309,22.5881 0.4132,22.7428 0.2523,22.8519 0.0649,22.9039 -0.1292,22.8934 -0.3098,22.8214 -0.458,22.6956 -0.5582,22.529 -0.6,22.3391 -0.5789,22.1458 -0.4973,21.9694 -0.3636,21.8282 -0.1918,21.7372 0.0001,21.7057 0.1919,21.7372 0.3637,21.8283 0.4974,21.9695 0.579,22.146 0.6,22.3393 0.5581,22.5291 0.4579,22.6957 0.3097,22.8215 0.129,22.8934 -0.0651,22.9039 -0.2524,22.8519 -0.4133,22.7427 -0.5309,22.5879 -0.593,22.4036 -0.6089,22.3065 -0.6106,21.1913 -0.6146,18.9606 -0.6201,16.73 -0.6277,14.4993 -0.6382,12.2686 -0.6527,10.038 -0.6728,7.8073 -0.7004,5.5767 -0.7384,3.346 -0.7909,1.1153 -0.7901,-0.1572 -0.6698,-0.4476 -0.4475,-0.6698 -0.1571,-0.7901 0.1572,-0.7901 0.4476,-0.6698 0.6698,-0.4475 0.7901,-0.1571 0.8214,0 0.7909,1.1153 Z"/></g><g transform="matrix(1, 0, 0, 1, 1153.5734, 288.8963)" opacity="1"><path stroke-width="0" stroke="none" fill="#1d1d1d" d="M0.7909,1.1756 Q0.7605,2.3512 0.7384,3.5269 T0.7004,5.8781 0.6728,8.2293 0.6527,10.5806 0.6382,12.9318 0.6277,15.283 0.6201,17.6343 0.6146,19.9855 0.6106,22.3368 0.5929,23.6096 0.5309,23.7938 0.4132,23.9486 0.2523,24.0577 0.0649,24.1097 -0.1292,24.0992 -0.3098,24.0272 -0.458,23.9013 -0.5582,23.7347 -0.6,23.5448 -0.5789,23.3516 -0.4973,23.1751 -0.3636,23.034 -0.1918,22.9429 0.0001,22.9115 0.1919,22.943 0.3637,23.0341 0.4974,23.1753 0.579,23.3517 0.6,23.545 0.5581,23.7349 0.4579,23.9015 0.3097,24.0273 0.129,24.0992 -0.0651,24.1097 -0.2524,24.0576 -0.4133,23.9485 -0.5309,23.7937 -0.593,23.6094 -0.6089,23.5123 -0.6106,22.3368 -0.6146,19.9855 -0.6201,17.6343 -0.6277,15.283 -0.6382,12.9318 -0.6527,10.5806 -0.6728,8.2293 -0.7004,5.8781 -0.7384,3.5269 -0.7909,1.1756 -0.7901,-0.1572 -0.6698,-0.4476 -0.4475,-0.6698 -0.1571,-0.7901 0.1572,-0.7901 0.4476,-0.6698 0.6698,-0.4475 0.7901,-0.1571 0.8214,0 0.7909,1.1756 Z"/></g><g transform="matrix(1, 0, 0, 1, 1157.5734, 615.8963)" opacity="1"><path stroke-width="0" stroke="none" fill="#1d1d1d" d="M0.7909,1.1756 Q0.7605,2.3512 0.7384,3.5269 T0.7004,5.8781 0.6728,8.2293 0.6527,10.5806 0.6382,12.9318 0.6277,15.283 0.6201,17.6343 0.6146,19.9855 0.6106,22.3368 0.5929,23.6096 0.5309,23.7938 0.4132,23.9486 0.2523,24.0577 0.0649,24.1097 -0.1292,24.0992 -0.3098,24.0272 -0.458,23.9013 -0.5582,23.7347 -0.6,23.5448 -0.5789,23.3516 -0.4973,23.1751 -0.3636,23.034 -0.1918,22.9429 0.0001,22.9115 0.1919,22.943 0.3637,23.0341 0.4974,23.1753 0.579,23.3517 0.6,23.545 0.5581,23.7349 0.4579,23.9015 0.3097,24.0273 0.129,24.0992 -0.0651,24.1097 -0.2524,24.0576 -0.4133,23.9485 -0.5309,23.7937 -0.593,23.6094 -0.6089,23.5123 -0.6106,22.3368 -0.6146,19.9855 -0.6201,17.6343 -0.6277,15.283 -0.6382,12.9318 -0.6527,10.5806 -0.6728,8.2293 -0.7004,5.8781 -0.7384,3.5269 -0.7909,1.1756 -0.7901,-0.1572 -0.6698,-0.4476 -0.4475,-0.6698 -0.1571,-0.7901 0.1572,-0.7901 0.4476,-0.6698 0.6698,-0.4475 0.7901,-0.1571 0.8214,0 0.7909,1.1756 Z"/></g><g transform="matrix(1, 0, 0, 1, 561.8138, 381.5081)" opacity="1"><g><path d="M7,-0.0164 L215.8507,-0.5067 Q222.8506,-0.5231 222.8143,6.4768 L222.4174,82.9569 Q222.381,89.9569 215.3811,89.9696 L7.5215,90.3479 Q0.5215,90.3606 0.5685,83.3608 L1.0873,6.1885 Q1.1344,-0.8113 8.1344,-0.8198 L215.3854,-1.0723 Q222.3854,-1.0808 222.4143,5.9191 L222.7322,83.1459 Q222.761,90.1459 215.761,90.1156 L8.0622,89.2182 Q1.0623,89.1879 0.9974,82.1882 L0.301,7.014 Q0.2361,0.0143 7,-0.0164 " fill="none" stroke="#1d1d1d" stroke-width="3.5"/><g><text font-size="22px" font-family="'tldraw_draw', sans-serif" font-style="normal" font-weight="normal" line-height="29.700000000000003px" dominant-baseline="mathematical" alignment-baseline="mathematical" stroke-width="2" fill="rgb(249, 250, 251)" stroke="rgb(249, 250, 251)"><tspan alignment-baseline="mathematical" x="16px" y="41.5px">DataAggregator</tspan></text><text font-size="22px" font-family="'tldraw_draw', sans-serif" font-style="normal" font-weight="normal" line-height="29.700000000000003px" dominant-baseline="mathematical" alignment-baseline="mathematical" fill="#1d1d1d" stroke="none"><tspan alignment-baseline="mathematical" x="16px" y="41.5px">DataAggregator</tspan></text></g></g></g><g transform="matrix(1, 0, 0, 1, 189, 636.7043)" opacity="1"><path stroke-width="0" stroke="none" fill="#1d1d1d" d="M9.8793,-1.6435 Q19.7567,-1.5371 29.6342,-1.4571 T49.3892,-1.3163 69.1442,-1.2086 88.8992,-1.125 108.6543,-1.0587 128.4093,-1.005 148.1644,-0.9605 167.9195,-0.9226 187.6746,-0.8895 207.4297,-0.8599 227.1848,-0.8329 246.9399,-0.8076 266.695,-0.7837 286.4501,-0.7608 306.2052,-0.7385 325.9603,-0.7168 345.7154,-0.6954 365.4705,-0.6743 385.2256,-0.6534 404.9807,-0.6326 424.7358,-0.6119 444.4909,-0.5913 464.246,-0.5708 484.0011,-0.5503 503.7562,-0.5298 523.5113,-0.5093 543.2664,-0.4889 563.0215,-0.4684 582.7766,-0.448 602.5317,-0.4276 622.2868,-0.4072 642.0419,-0.3868 661.797,-0.3663 681.5521,-0.3459 701.3072,-0.3255 721.0623,-0.3051 740.8174,-0.2847 760.5725,-0.2643 780.3276,-0.2439 800.0827,-0.2235 819.8378,-0.2031 839.5929,-0.1827 859.348,-0.1622 879.1031,-0.1418 898.8582,-0.1214 918.6133,-0.101 938.3684,-0.0806 958.1235,-0.0602 968.1687,-0.0223 968.4863,0.085 968.753,0.2882 968.9409,0.5659 969.0302,0.8891 969.0117,1.2238 968.8873,1.5352 968.6699,1.7905 968.3824,1.963 968.0549,2.0347 967.7217,1.9981 967.4175,1.857 967.1744,1.6261 967.0177,1.3297 966.9638,0.9988 967.0185,0.668 967.1759,0.3719 967.4196,0.1417 967.724,0.0013 968.0574,-0.0346 968.3847,0.0379 968.6718,0.2111 968.8885,0.4669 969.0122,0.7785 969.0299,1.1134 968.9398,1.4363 968.7513,1.7136 968.4841,1.9161 968.1663,2.0227 967.9988,2.05 958.1214,2.0398 938.3663,2.0194 918.6112,1.999 898.8561,1.9786 879.101,1.9582 859.3459,1.9378 839.5908,1.9173 819.8356,1.8969 800.0805,1.8765 780.3254,1.8561 760.5703,1.8357 740.8152,1.8153 721.0601,1.7949 701.305,1.7745 681.5499,1.7541 661.7948,1.7337 642.0397,1.7133 622.2846,1.6929 602.5295,1.6725 582.7744,1.6521 563.0193,1.6317 543.2642,1.6113 523.5091,1.591 503.754,1.5706 483.9989,1.5503 464.2438,1.53 444.4887,1.5097 424.7336,1.4895 404.9785,1.4693 385.2234,1.4493 365.4683,1.4294 345.7132,1.4097 325.9581,1.3903 306.203,1.3712 286.4479,1.3526 266.6928,1.3347 246.9377,1.3178 227.1826,1.3023 207.4275,1.2885 187.6724,1.2773 167.9172,1.2696 148.1621,1.2666 128.407,1.2703 108.6519,1.2832 88.8967,1.3086 69.1415,1.3515 49.3863,1.4184 29.6311,1.5183 9.8758,1.664 -0.3366,1.683 -0.9551,1.4261 -1.4281,0.952 -1.6838,0.333 -1.683,-0.3367 -1.4261,-0.9551 -0.952,-1.4282 -0.333,-1.6838 0.0019,-1.75 9.8793,-1.6435 Z"/></g></svg>